<svg version="1.1" xmlns="http://www.w3.org/2000/svg" xmlns:xlink="http://www.w3.org/1999/xlink" width="1297" height="1313"><desc>title%20Create%20user%0A%0Aactor%20Client%0Aparticipant%20AuthController%0Aparticipant%20AuthService%0Aparticipant%20PasswordManager%0Aparticipant%20UserRepository%0Aparticipant%20JJWT%0Adatabase%20user-system-db%0A%0AClient%20-%3E%20AuthController%20%3A%20POST%20%2Fsignup%0Aactivate%20AuthController%0AAuthController%20-%3E%20AuthService%20%3A%20registerUser%0Aactivate%20AuthService%0A%0Aalt%20new%20user%0A%20%20AuthService%20-%3E%20UserRepository%20%3A%20existsByEmail%0A%0A%20%20activate%20UserRepository%0A%20%20UserRepository%20-%3Euser-system-db%20%3A%20check%20if%20the%20email%20exists%0A%20%20activate%20user-system-db%0A%20%20UserRepository%20%3C%3C--%20user-system-db%20%3A%20result%3A%20False%0A%20%20deactivate%20user-system-db%0A%20%20AuthService%20%3C%3C--UserRepository%20%3A%20result%3A%20False%0A%20%20deactivate%20UserRepository%0A%0A%20%20AuthService%20-%3E%20PasswordManager%20%3A%20encryptPassword%0A%20%20activate%20PasswordManager%0A%20%20AuthService%20%3C%3C--%20PasswordManager%20%3A%20result%3A%20password%20SHA256%0A%20%20deactivate%20PasswordManager%0A%20%20%0A%20%20AuthService%20-%3E%20UserRepository%20%3A%20save%0A%20%20activate%20UserRepository%0A%20%20UserRepository%20-%3E%20user-system-db%20%3A%20persist%20user%0A%20%20user-system-db%20--%3E%3E%20UserRepository%20%3A%20result%3A%20User%0A%20%20UserRepository%20--%3E%3E%20AuthService%20%3A%20result%3A%20User%0A%20%20deactivate%20UserRepository%0A%20%20%0A%20%20AuthService%20-%3E%20JJWT%20%3A%20generateToken%0A%20%20activate%20JJWT%0A%20%20JJWT%20--%3E%3E%20AuthService%20%3A%20result%3A%20jwt%0A%20%20deactivate%20JJWT%0A%0A%20%20AuthService%20--%3E%3E%20AuthController%20%3A%20result%3A%20user%0A%20%20AuthController%20--%3E%3E%20Client%20%3A%20result%3A%20user%0A%0Aelse%20existing%20user%0A%20%20AuthService%20-%3E%20UserRepository%20%3A%20existsByEmail%0A%0A%20%20activate%20UserRepository%0A%20%20UserRepository%20-%3Euser-system-db%20%3A%20check%20if%20the%20email%20exists%0A%20%20activate%20user-system-db%0A%20%20UserRepository%20%3C%3C--%20user-system-db%20%3A%20result%3A%20True%0A%20%20deactivate%20user-system-db%0A%20%20AuthService%20%3C%3C--UserRepository%20%3A%20result%3A%20True%0A%20%20deactivate%20UserRepository%0A%20%20AuthService%20--%3E%3E%20AuthController%20%3A%20result%3A%20Error%20user%20already%20exists%0A%20%20AuthController%20--%3E%3E%20Client%20%3A%20result%3A%20Error%20user%20already%20exists%0Aend%0A%0A%0A%0A%0Adeactivate%20AuthService%0Adeactivate%20AuthController</desc><defs/><g><g/><g/><g/><g/><g/><g/><g/><g/><g/><g/><g/><g/><g/><g/><g/><g/><g/><g/><g/><g/><g/><g/><g><rect fill="white" stroke="none" x="0" y="0" width="1297" height="1313"/></g><g><text fill="black" stroke="none" font-family="sans-serif" font-size="16.5pt" font-style="normal" font-weight="normal" text-decoration="normal" x="591.4225816243138" y="24.50280495" text-anchor="start" dominant-baseline="alphabetic" xml:space="preserve">Create user</text></g><g/><g><path fill="none" stroke="black" paint-order="fill stroke markers" d=" M 73.50841485 128.884754037 L 73.50841485 1313.1869932869995" stroke-miterlimit="10" stroke-width="1.3612669416666667" stroke-dasharray="12.565541,5.445067766666667"/><path fill="none" stroke="black" paint-order="fill stroke markers" d=" M 328.0997025542317 128.884754037 L 328.0997025542317 1313.1869932869995" stroke-miterlimit="10" stroke-width="1.3612669416666667" stroke-dasharray="12.565541,5.445067766666667"/><path fill="none" stroke="black" paint-order="fill stroke markers" d=" M 590.8585919084635 128.884754037 L 590.8585919084635 1313.1869932869995" stroke-miterlimit="10" stroke-width="1.3612669416666667" stroke-dasharray="12.565541,5.445067766666667"/><path fill="none" stroke="black" paint-order="fill stroke markers" d=" M 816.1658668828125 128.884754037 L 816.1658668828125 1313.1869932869995" stroke-miterlimit="10" stroke-width="1.3612669416666667" stroke-dasharray="12.565541,5.445067766666667"/><path fill="none" stroke="black" paint-order="fill stroke markers" d=" M 979.5733240147109 128.884754037 L 979.5733240147109 1313.1869932869995" stroke-miterlimit="10" stroke-width="1.3612669416666667" stroke-dasharray="12.565541,5.445067766666667"/><path fill="none" stroke="black" paint-order="fill stroke markers" d=" M 1100.5935435977813 128.884754037 L 1100.5935435977813 1313.1869932869995" stroke-miterlimit="10" stroke-width="1.3612669416666667" stroke-dasharray="12.565541,5.445067766666667"/><path fill="none" stroke="black" paint-order="fill stroke markers" d=" M 1216.1105529986276 128.884754037 L 1216.1105529986276 1313.1869932869995" stroke-miterlimit="10" stroke-width="1.3612669416666667" stroke-dasharray="12.565541,5.445067766666667"/></g><g><g><path fill="white" stroke="black" paint-order="fill stroke markers" d=" M 82.819480731 59.786844078 A 9.311065881 9.311065881 0 1 1 82.81947607546743 59.77753301367084 M 73.50841485 69.097909959 L 73.50841485 89.026857985 M 61.747068473999995 76.285399411 L 85.26976122599999 76.285399411 M 73.50841485 89.026857985 L 61.747068473999995 107.648989747 M 73.50841485 89.026857985 L 85.26976122599999 107.648989747" stroke-miterlimit="10" stroke-width="2.7769845610000004" stroke-dasharray=""/></g><g><g/><text fill="black" stroke="none" font-family="sans-serif" font-size="11pt" font-style="normal" font-weight="normal" text-decoration="normal" x="54.76826439833984" y="123.98419304699999" text-anchor="start" dominant-baseline="alphabetic" xml:space="preserve">Client</text></g><path fill="none" stroke="none"/><g><path fill="white" stroke="black" paint-order="fill stroke markers" d=" M 263.5220564732434 84.779705127 L 392.67734863522 84.779705127 L 392.67734863522 128.884754037 L 263.5220564732434 128.884754037 L 263.5220564732434 84.779705127 Z" stroke-miterlimit="10" stroke-width="2.613632528" stroke-dasharray=""/></g><g><g/><text fill="black" stroke="none" font-family="sans-serif" font-size="11pt" font-style="normal" font-weight="normal" text-decoration="normal" x="281.24575205374344" y="112.549550737" text-anchor="start" dominant-baseline="alphabetic" xml:space="preserve">AuthController</text></g><path fill="none" stroke="none"/><g><path fill="white" stroke="black" paint-order="fill stroke markers" d=" M 533.6145182151705 84.779705127 L 648.1026656017565 84.779705127 L 648.1026656017565 128.884754037 L 533.6145182151705 128.884754037 L 533.6145182151705 84.779705127 Z" stroke-miterlimit="10" stroke-width="2.613632528" stroke-dasharray=""/></g><g><g/><text fill="black" stroke="none" font-family="sans-serif" font-size="11pt" font-style="normal" font-weight="normal" text-decoration="normal" x="551.3382137956705" y="112.549550737" text-anchor="start" dominant-baseline="alphabetic" xml:space="preserve">AuthService</text></g><path fill="none" stroke="none"/><g><path fill="white" stroke="black" paint-order="fill stroke markers" d=" M 737.3290960459648 84.779705127 L 895.0026377196601 84.779705127 L 895.0026377196601 128.884754037 L 737.3290960459648 128.884754037 L 737.3290960459648 84.779705127 Z" stroke-miterlimit="10" stroke-width="2.613632528" stroke-dasharray=""/></g><g><g/><text fill="black" stroke="none" font-family="sans-serif" font-size="11pt" font-style="normal" font-weight="normal" text-decoration="normal" x="755.0527916264648" y="112.549550737" text-anchor="start" dominant-baseline="alphabetic" xml:space="preserve">PasswordManager</text></g><path fill="none" stroke="none"/><g><path fill="white" stroke="black" paint-order="fill stroke markers" d=" M 911.3378410196601 84.779705127 L 1047.8088070097617 84.779705127 L 1047.8088070097617 128.884754037 L 911.3378410196601 128.884754037 L 911.3378410196601 84.779705127 Z" stroke-miterlimit="10" stroke-width="2.613632528" stroke-dasharray=""/></g><g><g/><text fill="black" stroke="none" font-family="sans-serif" font-size="11pt" font-style="normal" font-weight="normal" text-decoration="normal" x="929.0615366001601" y="112.549550737" text-anchor="start" dominant-baseline="alphabetic" xml:space="preserve">UserRepository</text></g><path fill="none" stroke="none"/><g><path fill="white" stroke="black" paint-order="fill stroke markers" d=" M 1064.1440103097618 84.779705127 L 1137.043076885801 84.779705127 L 1137.043076885801 128.884754037 L 1064.1440103097618 128.884754037 L 1064.1440103097618 84.779705127 Z" stroke-miterlimit="10" stroke-width="2.613632528" stroke-dasharray=""/></g><g><g/><text fill="black" stroke="none" font-family="sans-serif" font-size="11pt" font-style="normal" font-weight="normal" text-decoration="normal" x="1081.8677058902617" y="112.549550737" text-anchor="start" dominant-baseline="alphabetic" xml:space="preserve">JJWT</text></g><g><path fill="white" stroke="black" paint-order="fill stroke markers" d=" M 1192.2611561806275 96.867755569 L 1192.2611561806275 62.563828639 L 1239.9599498166276 62.563828639 L 1239.9599498166276 96.867755569" stroke-miterlimit="10" stroke-width="2.7769845610000004" stroke-dasharray=""/><path fill="white" stroke="black" paint-order="fill stroke markers" d=" M 1239.9599498166276 61.3713587981 L 1239.958757356724 61.47916934301662 L 1239.955180096258 61.58696910696859 L 1239.9492183929524 61.69474731006935 L 1239.9408728429732 61.8024931745884 L 1239.930144280868 61.91019592602908 L 1239.9170337794842 62.017844794206 L 1239.9015426498609 62.125429014322044 L 1239.8836724410983 62.232937828044854 L 1239.8634249402023 62.34036048458265 L 1239.840802171906 62.44768624175929 L 1239.8158063984677 62.55490436708851 L 1239.7884401194437 62.66200413884712 L 1239.758706071439 62.76897484714718 L 1239.726607227834 62.87580579500701 L 1239.6921467984857 62.982486299420856 L 1239.655328229409 63.08900569242717 L 1239.6161552024298 63.19535332217542 L 1239.574631634818 63.30151855399125 L 1239.530761678896 63.40749077143996 L 1239.4845497216227 63.5132593773881 L 1239.4360003841552 63.618813795063225 L 1239.3851185213873 63.724143469111524 L 1239.3319092214622 63.82923786665337 L 1239.276377805266 63.93408647833659 L 1239.2185298258942 64.03867881938739 L 1239.158371068096 64.1430044306588 L 1239.0959075476972 64.24705287967667 L 1239.0311455109982 64.35081376168277 L 1238.964091434148 64.45427670067541 L 1238.894752022499 64.55743135044686 L 1238.8231342099346 64.66026739561813 L 1238.7492451581759 64.7627745526704 L 1238.6730922560666 64.86494257097338 L 1238.594683118834 64.96676123381039 L 1238.514025587326 65.06822035939997 L 1238.4311277272284 65.16930980191414 L 1238.3459978282585 65.27001945249287 L 1238.2586444033352 65.37033924025505 L 1238.169076187728 65.47025913330548 L 1238.0773021381838 65.56976913973813 L 1237.9833314320315 65.66885930863528 L 1237.887173466263 65.7675197310626 L 1237.7888378565947 65.86574054106009 L 1237.688334436506 65.96351191662859 L 1237.5856732562547 66.06082408071202 L 1237.4808645818737 66.15766730217506 L 1237.373918894143 66.25403189677627 L 1237.264846887542 66.3499082281365 L 1237.1536594691806 66.4452867087025 L 1237.040367757708 66.54015780070569 L 1236.9249830822012 66.63451201711595 L 1236.807516981031 66.72833992259025 L 1236.6879812007103 66.82163213441623 L 1236.566387694717 66.91437932345046 L 1236.4427486223005 67.00657221505134 L 1236.3170763472651 67.0982015900065 L 1236.1893834367336 67.18925828545483 L 1236.0596826598908 67.27973319580266 L 1235.9279869867057 67.36961727363435 L 1235.7943095866365 67.45890153061701 L 1235.6586638273116 67.54757703839935 L 1235.5210632731937 67.6356349295045 L 1235.3815216842238 67.72306639821673 L 1235.2400530144446 67.80986270146201 L 1235.0966714106048 67.89601515968236 L 1234.9513912107454 67.98151515770375 L 1234.8042269427658 68.06635414559763 L 1234.6551933229696 68.15052363953589 L 1234.5043052545948 68.2340152226393 L 1234.3515778263225 68.31682054581911 L 1234.197026310768 68.39893132861202 L 1234.0406661629545 68.48033936000816 L 1233.8825130187663 68.56103649927225 L 1233.7225826933861 68.6410146767576 L 1233.5608911797128 68.72026589471311 L 1233.3974546467634 68.79878222808303 L 1233.232289438055 68.87655582529945 L 1233.0654120699708 68.95357890906746 L 1232.8968392301083 69.02984377714286 L 1232.726587775611 69.10534280310242 L 1232.554674731483 69.18006843710643 L 1232.381117288885 69.25401320665378 L 1232.2059328034165 69.32716971732913 L 1232.0291387933805 69.39953065354239 L 1231.8507529380304 69.47108877926021 L 1231.6707930758032 69.54183693872967 L 1231.489277202535 69.61176805719379 L 1231.3062234696622 69.68087514159897 L 1231.1216501824051 69.74915128129439 L 1230.935575797939 69.81658964872294 L 1230.748018923547 69.88318350010411 L 1230.5589983147604 69.94892617610824 L 1230.3685328734825 70.01381110252252 L 1230.1766416460987 70.07783179090838 L 1229.983343821572 70.14098183925032 L 1229.7886587295234 70.20325493259614 L 1229.5926058383002 70.26464484368842 L 1229.395204753028 70.32514543358717 L 1229.196475213651 70.38475065228383 L 1228.9964370929572 70.44345453930622 L 1228.7951103945923 70.50125122431453 L 1228.592515251058 70.55813492768844 L 1228.3886719217005 70.61409996110503 L 1228.183600790682 70.66914072810756 L 1227.9773223649454 70.72325172466522 L 1227.769857272161 70.77642753972344 L 1227.5612262586653 70.82866285574504 L 1227.3514501873858 70.87995244924193 L 1227.1405500357548 70.9302911912975 L 1226.9285468936118 70.9796740480795 L 1226.7154619610942 71.0280960813434 L 1226.5013165465177 71.07555244892625 L 1226.2861320642455 71.12203840523081 L 1226.0699300325464 71.16754930170019 L 1225.8527320714431 71.21208058728268 L 1225.634559900551 71.25562780888683 L 1225.4154353369056 71.29818661182675 L 1225.1953802927803 71.33975274025764 L 1224.9744167734962 71.38032203760127 L 1224.7525668752212 71.41989044696174 L 1224.5298527827601 71.45845401153106 L 1224.3062967673368 71.49600887498494 L 1224.0819211843661 71.5325512818683 L 1223.8567484712198 71.56807757797091 L 1223.6308011449814 71.60258421069277 L 1223.4041018001953 71.63606772939937 L 1223.1766731066068 71.66852478576672 L 1222.9485378068962 71.69995213411627 L 1222.7197187144027 71.73034663173934 L 1222.4902387108455 71.7597052392115 L 1222.2601207440334 71.78802502069648 L 1222.0293878255713 71.81530314423973 L 1221.798063028559 71.84153688205163 L 1221.5661694852831 71.86672361078024 L 1221.333730384905 71.8908608117737 L 1221.100768971141 71.913946071332 L 1220.867308539938 71.93597708094846 L 1220.633372437145 71.95695163754044 L 1220.3989840561771 71.97686764366978 L 1220.1641668356772 71.99572310775245 L 1219.9289442571715 72.01351614425778 L 1219.6933398427218 72.03024497389691 L 1219.4573771525736 72.04590792380084 L 1219.2210797827988 72.06050342768764 L 1218.9844713629377 72.07403002601906 L 1218.7475755536352 72.08648636614654 L 1218.5104160442747 72.09787120244648 L 1218.2730165506096 72.1081833964447 L 1218.0354008123911 72.11742191693043 L 1217.7975925909955 72.12558584005929 L 1217.5596156670465 72.13267434944576 L 1217.3214938380381 72.13868673624485 L 1217.0832509159547 72.14362239922286 L 1216.8449107248905 72.14748084481762 L 1216.6064970986654 72.1502616871878 L 1216.3680338784438 72.15196464825142 L 1216.1295449103486 72.15258955771385 L 1215.8910540430782 72.15213635308466 L 1215.6525851255203 72.15060507968391 L 1215.414162004368 72.14799589063767 L 1215.175808521735 72.1443090468627 L 1214.9375485127707 72.13954491704027 L 1214.6994058032774 72.1337039775794 L 1214.4614042073276 72.12678681256918 L 1214.2235675248828 72.11879411372033 L 1213.9859195394129 72.10972668029609 L 1213.7484840155184 72.09958541903224 L 1213.5112846965537 72.08837134404646 L 1213.2743453022533 72.07608557673689 L 1213.037689526359 72.06272934567005 L 1212.8013410342512 72.04830398645788 L 1212.5653234605822 72.0328109416243 L 1212.3296604069126 72.01625176046089 L 1212.0943754393516 71.99862809887196 L 1211.8594920861995 71.97994171920898 L 1211.6250338355962 71.96019449009434 L 1211.3910241331712 71.9393883862345 L 1211.1574863797 71.91752548822251 L 1210.924443928763 71.89460798232996 L 1210.6919200844113 71.87063816028832 L 1210.4599380988354 71.84561841905983 L 1210.2285211700407 71.81955126059778 L 1209.9976924395273 71.79243929159627 L 1209.7674749899757 71.7642852232296 L 1209.5378918429392 71.73509187088118 L 1209.308965956541 71.7048621538619 L 1209.080720223179 71.67359909511825 L 1208.8531774672363 71.64130582093009 L 1208.626360442799 71.6079855605979 L 1208.4002918313804 71.57364164611994 L 1208.1749942396534 71.53827751185906 L 1207.9504901971895 71.50189669419922 L 1207.7268021542056 71.46450283119185 L 1207.5039524793197 71.42609966219209 L 1207.2819634573136 71.38669102748484 L 1207.0608572869044 71.34628086790075 L 1206.8406560785252 71.30487322442208 L 1206.6213818521128 71.26247223777868 L 1206.4030565349076 71.21908214803388 L 1206.1857019592594 71.17470729416048 L 1205.9693398604443 71.12935211360693 L 1205.753991874492 71.08302114185344 L 1205.5396795360216 71.0357190119586 L 1205.3264242760886 70.987450454096 L 1205.114247420041 70.93822029508118 L 1204.9031701853878 70.88803345788901 L 1204.6932136796765 70.8368949611614 L 1204.4843988983826 70.7848099187054 L 1204.2767467228102 70.73178353898187 L 1204.070277918004 70.67782112458457 L 1203.8650131306724 70.62292807170999 L 1203.6609728871229 70.56710986961765 L 1203.45817759121 70.51037210008127 L 1203.2566475222943 70.4527204368305 L 1203.0564028332144 70.39416064498364 L 1202.857463548273 70.33469858047107 L 1202.6598495612322 70.27434018944969 L 1202.4635806333263 70.2130915077083 L 1202.2686763912845 70.15095866006402 L 1202.0751563253684 70.08794785974987 L 1201.8830397874237 70.02406540779336 L 1201.692345988944 69.95931769238642 L 1201.50309399915 69.89371118824668 L 1201.315302743083 69.82725245596986 L 1201.1289909997124 69.7599481413738 L 1200.944177400057 69.69180497483389 L 1200.760880425323 69.62282977060998 L 1200.5791184050547 69.55302942616503 L 1200.398909515303 69.4824109214753 L 1200.2202717768068 69.41098131833243 L 1200.043223053191 69.3387477596372 L 1199.8677810491802 69.26571746868528 L 1199.6939633088286 69.19189774844492 L 1199.5217872137657 69.1172959808266 L 1199.3512699814576 69.04191962594494 L 1199.1824286634849 68.96577622137262 L 1199.015280143839 68.88887338138663 L 1198.8498411372325 68.81121879620689 L 1198.6861281874285 68.73282023122718 L 1198.524157665585 68.6536855262387 L 1198.3639457686197 68.573822594646 L 1198.2055085175887 68.49323942267567 L 1198.048861756085 68.41194406857777 L 1197.894021148654 68.32994466181995 L 1197.7410021792277 68.24724940227456 L 1197.5898201495754 68.16386655939866 L 1197.440490177774 68.07980447140702 L 1197.2930271966966 67.99507154443839 L 1197.1474459525182 67.90967625171488 L 1197.0037610032416 67.8236271326946 L 1196.8619867172424 67.73693279221771 L 1196.722137271831 67.64960189964606 L 1196.5842266518353 67.56164318799608 L 1196.4482686482022 67.47306545306569 L 1196.3142768566192 67.38387755255452 L 1196.1822646761534 67.29408840517834 L 1196.0522453079132 67.20370698977703 L 1195.9242317537266 67.11274234441683 L 1195.7982368148428 67.02120356548647 L 1195.6742730906503 66.92909980678756 L 1195.5523529774186 66.83644027861922 L 1195.4324886670572 66.74323424685704 L 1195.3146921458972 66.64949103202653 L 1195.1989751934927 66.55522000837107 L 1195.0853493814427 66.46043060291444 L 1194.9738260722331 66.3651322945182 L 1194.8644164181026 66.2693346129338 L 1194.7571313599249 66.17304713784955 L 1194.6519816261166 66.07627949793272 L 1194.5489777315636 65.97904136986665 L 1194.4481299765694 65.88134247738313 L 1194.3494484458251 65.78319259028999 L 1194.2529430074023 65.68460152349414 L 1194.1586233117637 65.58557913602012 L 1194.0664987908008 65.48613533002413 L 1193.9765786568887 65.38628004980393 L 1193.8888719019656 65.2860232808043 L 1193.8033872966344 65.18537504861862 L 1193.720133389284 65.08434541798623 L 1193.6391185052362 64.982944491786 L 1193.5603507459114 64.88118241002603 L 1193.48383798802 64.77906934882972 L 1193.4095878827743 64.67661551941809 L 1193.3376078551225 64.5738311670887 L 1193.267905103008 64.47072657019112 L 1193.2004865966474 64.36731203909913 L 1193.1353590778353 64.26359791517966 L 1193.0725290592695 64.15959456975868 L 1193.0120028238994 64.05531240308405 L 1192.953786424298 63.95076184328555 L 1192.8978856820565 63.84595334533201 L 1192.844306187203 63.74089738998592 L 1192.7930532976425 63.63560448275524 L 1192.7441321386204 63.530085152842965 L 1192.6975476022128 63.42434995209415 L 1192.6533043468337 63.318409453940745 L 1192.6114067967724 63.2122742523443 L 1192.5718591417485 63.105954960736526 L 1192.534665336495 62.99946221095797 L 1192.499829100361 62.892806652194885 L 1192.4673539169414 62.78599894991426 L 1192.4372430337273 62.679049784797314 L 1192.4094994617822 62.57196985167143 L 1192.3841259754397 62.464769858440704 L 1192.3611251120278 62.357460525015114 L 1192.3404991716134 62.25005258223858 L 1192.3222502167732 62.14255677081588 L 1192.3063800723878 62.03498384023857 L 1192.2928903254583 61.92734454771006 L 1192.2817823249482 61.81964965706991 L 1192.273057181648 61.71190993771744 L 1192.266715768065 61.6041361635348 L 1192.2627587183354 61.49633911180959 L 1192.2611864281607 61.38852956215717 L 1192.2619990547687 61.28071829544265 L 1192.2651965168973 61.172916092702856 L 1192.270778494803 61.06513373406823 L 1192.2787444302926 60.957381997684834 L 1192.2890935267794 60.84967165863649 L 1192.3018247493621 60.74201348786736 L 1192.3169368249294 60.6344182511048 L 1192.3344282422859 60.526896707782825 L 1192.3542972523046 60.41945960996616 L 1192.3765418681014 60.31211770127506 L 1192.4011598652328 60.204881715810956 L 1192.4281487819198 60.097762377083015 L 1192.4575059192932 59.99077039693585 L 1192.4892283416636 59.88391647447831 L 1192.5233128768155 59.7772112950136 L 1192.5597561163236 59.67066552897075 L 1192.5985544158943 59.56428983083758 L 1192.63970389573 59.45809483809524 L 1192.683200440917 59.35209117015452 L 1192.729039701837 59.24628942729389 L 1192.7772170946023 59.14070018959944 L 1192.8277278015134 59.03533401590697 L 1192.8805667715421 58.93020144274604 L 1192.9357287208352 58.82531298328635 L 1192.9932081332438 58.72067912628645 L 1193.0529992608747 58.61631033504484 L 1193.1150961246647 58.51221704635366 L 1193.179492514979 58.40840966945505 L 1193.2461819922328 58.30489858500019 L 1193.3151578875336 58.20169414401126 L 1193.3864133033494 58.098806666846365 L 1193.459941114198 57.996246442167475 L 1193.5357339673596 57.894023725911595 L 1193.6137842836122 57.79214874026516 L 1193.6940842579888 57.69063167264185 L 1193.7766258605593 57.58948267466382 L 1193.8614008372322 57.488711861146584 L 1193.94840071058 57.38832930908751 L 1194.0376167806885 57.28834505665816 L 1194.1290401260244 57.18876910220045 L 1194.22266160433 57.08961140322686 L 1194.3184718535351 56.99088187542464 L 1194.4164612926947 56.8925903916643 L 1194.5166201229465 56.794746781012314 L 1194.618938328491 56.6973608277482 L 1194.7234056775928 56.60044227038614 L 1194.8300117236042 56.5040008007011 L 1194.9387458060096 56.40804606275968 L 1195.049597051491 56.31258765195572 L 1195.1625543750163 56.217635114050736 L 1195.2776064809473 56.12319794421941 L 1195.3947418641694 56.029285586100016 L 1195.513948811242 55.93590743085011 L 1195.6352154015694 55.8430728162074 L 1195.7585295085937 55.75079102555599 L 1195.8838788010073 55.65907128699804 L 1196.0112507439849 55.56792277243099 L 1196.1406326004387 55.47735459663031 L 1196.2720114322908 55.387375816338135 L 1196.4053741017674 55.29799542935749 L 1196.5407072727128 55.20922237365261 L 1196.6779974119227 55.12106552645507 L 1196.8172307904974 55.033533703376136 L 1196.9583934852153 54.94663565752517 L 1197.1014713799245 54.86038007863435 L 1197.2464501669547 54.77477559218968 L 1197.393315348548 54.689830758568455 L 1197.5420522383085 54.60555407218327 L 1197.6926459626716 54.52195396063252 L 1197.8450814623898 54.439038783857704 L 1197.9993434940407 54.35681683330739 L 1198.1554166315493 54.27529633110813 L 1198.3132852677322 54.19448542924221 L 1198.472933615857 54.114392208732454 L 1198.6343457112223 54.03502467883419 L 1198.7975054127526 53.95639077623426 L 1198.9623964046143 53.878498364257396 L 1199.1290021978452 53.801355232079885 L 1199.297306132005 53.72496909395066 L 1199.4672913768402 53.649347588419886 L 1199.6389409339686 53.57449827757509 L 1199.8122376385768 53.50042864628498 L 1199.9871641611394 53.42714610145097 L 1200.1637030091495 53.35465797126647 L 1200.3418365288696 53.28297150448409 L 1200.521546907096 53.21209386969077 L 1200.702816172941 53.14203215459092 L 1200.8856261996289 53.072793365297684 L 1201.069958706309 53.00438442563227 L 1201.2557952598847 52.93681217643165 L 1201.4431172768552 52.870083374864436 L 1201.6319060251753 52.80420469375517 L 1201.822142626127 52.739182720917064 L 1202.0138080562092 52.67502395849323 L 1202.2068831490383 52.611734822306424 L 1202.401348597266 52.54932164121754 L 1202.5971849545094 52.48779065649267 L 1202.7943726372964 52.427148021179015 L 1202.9928919270226 52.36739979948956 L 1203.1927229719245 52.3085519661967 L 1203.3938457890645 52.25061040603471 L 1203.596240266328 52.19358091311133 L 1203.7998861644362 52.13746919032833 L 1204.004763118969 52.08228084881122 L 1204.2108506424017 52.02802140734818 L 1204.4181281261538 51.974696291838114 L 1204.6265748426492 51.922310834748146 L 1204.8361699473903 51.87087027458034 L 1205.0468924810414 51.82037975534783 L 1205.2587213715244 51.770844326060484 L 1205.471635436127 51.72226894021993 L 1205.68561338362 51.674658455324284 L 1205.9006338163872 51.62801763238236 L 1206.1166752325644 51.58235113543759 L 1206.33371602819 51.5376635311016 L 1206.5517344993652 51.49395928809759 L 1206.770708844425 51.451242776813444 L 1206.9906171661166 51.409518268864694 L 1207.2114374737919 51.368789936667355 L 1207.4331476856034 51.32906185302072 L 1207.6557256307153 51.29033799070003 L 1207.8791490515184 51.252622222059266 L 1208.1033956058566 51.21591831864385 L 1208.3284428692616 51.18022995081354 L 1208.5542683371943 51.14556068737539 L 1208.7808494272963 51.11191399522683 L 1209.0081634816474 51.079293239009054 L 1209.2361877690316 51.047701680770494 L 1209.46489948721 51.01714247964064 L 1209.6942757652016 50.98761869151416 L 1209.9242936655696 50.95913326874524 L 1210.1549301867158 50.93168905985244 L 1210.3861622651802 50.90528880923376 L 1210.6179667779477 50.87993515689227 L 1210.85032054476 50.85563063817208 L 1211.0832003304342 50.83237768350481 L 1211.3165828471858 50.81017861816654 L 1211.5504447569574 50.78903566204531 L 1211.7847626737532 50.768950929419105 L 1212.0195131659768 50.749926428744466 L 1212.2546727587744 50.7319640624556 L 1212.4902179363828 50.71506562677416 L 1212.7261251444804 50.69923281152964 L 1212.9623707925432 50.684467199990365 L 1213.198931256203 50.6707702687052 L 1213.4357828796108 50.658143387355835 L 1213.6729019778013 50.64658781861989 L 1213.9102648390628 50.63610471804463 L 1214.1478477273065 50.62669513393135 L 1214.385626884442 50.61836000723063 L 1214.6235785327513 50.61110017144819 L 1214.861678877268 50.604916352561574 L 1215.0999041081561 50.5998091689475 L 1215.338230403091 50.595779131320086 L 1215.5766339296422 50.592826642679725 L 1215.815090847655 50.59095199827282 L 1216.053577311637 50.59015538556226 L 1216.29206947314 50.59043688420866 L 1216.5305434831469 50.59179646606236 L 1216.7689754944552 50.594233995166334 L 1217.0073416640626 50.59774922776969 L 1217.245618155551 50.6023418123521 L 1217.4837811414693 50.60801128965893 L 1217.721806805718 50.61475709274719 L 1217.9596713459284 50.622578547042174 L 1218.1973509758452 50.63147487040497 L 1218.434821927703 50.64144517321068 L 1218.6720604546051 50.6524884584373 L 1218.9090428328961 50.66460362176552 L 1219.1457453645357 50.67778945168912 L 1219.382144379468 50.69204462963607 L 1219.6182162379885 50.70736773010048 L 1219.8539373331082 50.72375722078505 L 1220.0892840929139 50.74121146275439 L 1220.3242329829257 50.759728710598836 L 1220.5587605084506 50.77930711260903 L 1220.7928432169313 50.79994471096109 L 1221.026457700292 50.821639441912396 L 1221.2595805972792 50.844389136007905 L 1221.4921885957972 50.86819151829718 L 1221.7242584352402 50.893044208561825 L 1221.9557669088178 50.91894472155353 L 1222.186690865875 50.94589046724256 L 1222.4170072142094 50.973878751076825 L 1222.6466929223773 51.00290677425126 L 1222.8757250219996 51.03297163398772 L 1223.1040806100573 51.064070323825305 L 1223.3317368511819 51.09619973392093 L 1223.5586709799386 51.129356651360375 L 1223.784860303104 51.16353776047952 L 1224.0102822019342 51.198739643195935 L 1224.2349141344273 51.23495877935069 L 1224.4587336375769 51.27219154706035 L 1224.6817183296193 51.31043422307917 L 1224.9038459122714 51.349682983171405 L 1225.12509417296 51.38993390249377 L 1225.345440987043 51.43118295598788 L 1225.564864320023 51.47342601878273 L 1225.7833422297495 51.51665886660727 L 1226.0008528686133 51.56087717621274 L 1226.217374485732 51.60607652580503 L 1226.4328854291246 51.65225239548683 L 1226.6473641478758 51.69940016770967 L 1226.8607891942927 51.74751512773561 L 1227.0731392260486 51.79659246410874 L 1227.2843930083172 51.84662726913632 L 1227.4945294158965 51.89761453937955 L 1227.7035274353207 51.949549176153894 L 1227.9113661669617 52.00242598603895 L 1228.11802482712 52.0562396813978 L 1228.3234827501017 52.11098488090573 L 1228.5277193902857 52.16665611008844 L 1228.730714324178 52.22324780186939 L 1228.9324472524547 52.28075429712656 L 1229.1328980019907 52.339169845258354 L 1229.3320465278784 52.398488604758626 L 1229.529872915431 52.458704643800864 L 1229.7263573821747 52.51981194083135 L 1229.9214802798263 52.581804385171296 L 1230.115222096259 52.64467577762793 L 1230.3075634574525 52.708419831114405 L 1230.498485129431 52.77303017127848 L 1230.6879680201862 52.83850033713999 L 1230.875993181587 52.90482378173691 L 1231.062541811274 52.97199387278003 L 1231.2475952545399 53.040003893316246 L 1231.4311350061942 53.108847042400164 L 1231.6131427124149 53.17851643577425 L 1231.7936001725827 53.24900510655722 L 1231.9724893411026 53.32030600594074 L 1232.1497923292065 53.39241200389429 L 1232.3254914067431 53.465315889878156 L 1232.4995690039516 53.5390103735645 L 1232.6720077132168 53.61348808556637 L 1232.8427902908118 53.68874157817461 L 1233.0118996586211 53.76476332610268 L 1233.1793189058487 53.84154572723915 L 1233.3450312907096 53.91908110340788 L 1233.5090202421034 53.99736170113587 L 1233.6712693612712 54.07637969242858 L 1233.8317624234369 54.156127175552726 L 1233.9904833794276 54.236596175826456 L 1234.1474163572802 54.3177786464168 L 1234.3025456638277 54.39966646914434 L 1234.4558557862683 54.48225145529506 L 1234.6073313937181 54.56552534643915 L 1234.7569573387423 54.6494798152569 L 1234.9047186588712 54.73410646637139 L 1235.0506005780956 54.81939683718802 L 1235.1945885083455 54.9053423987408 L 1235.3366680509475 54.99193455654518 L 1235.4768249980664 55.079164651457546 L 1235.6150453341236 55.16702396054111 L 1235.751315237201 55.25550369793815 L 1235.8856210804217 55.344595015748695 L 1236.0179494333136 55.43428900491518 L 1236.1482870631512 55.52457669611344 L 1236.2766209362806 55.615449060649595 L 1236.4029382194212 55.706897011362926 L 1236.52722628095 55.79891140353456 L 1236.6494726921644 55.891483035801954 L 1236.7696652285251 55.98460265107904 L 1236.8877918708786 56.07826093748187 L 1237.0038408066594 56.17244852925987 L 1237.1178004310702 56.26715600773234 L 1237.2296593482438 56.36237390223035 L 1237.3394063723817 56.45809269104382 L 1237.4470305288728 56.55430280237361 L 1237.5525210553913 56.65099461528878 L 1237.6558674029725 56.74815846068861 L 1237.7570592370673 56.84578462226952 L 1237.8560864385772 56.943863337496715 L 1237.9529391048643 57.0423847985804 L 1238.0476075507427 57.14133915345658 L 1238.1400823094466 57.240716506772216 L 1238.2303541335773 57.34050692087479 L 1238.3184139960276 57.44070041680606 L 1238.4042530908848 57.54128697529992 L 1238.4878628343106 57.64225653778434 L 1238.5692348654006 57.74359900738722 L 1238.6483610470195 57.84530424994605 L 1238.725233466615 57.94736209502132 L 1238.7998444370091 58.04976233691358 L 1238.8721864971671 58.15249473568397 L 1238.9422524129434 58.25554901817823 L 1239.0100351778044 58.35891487905398 L 1239.0755280135304 58.46258198181127 L 1239.1387243708923 58.566539959826216 L 1239.1996179303069 58.67077841738765 L 1239.2582026024693 58.77528693073668 L 1239.314472528961 58.88005504910905 L 1239.3684220828363 58.985072295780256 L 1239.4200458691844 59.09032816911312 L 1239.4693387256702 59.19581214360803 L 1239.5162957230486 59.301513670955444 L 1239.5609121656596 59.4074221810907 L 1239.6031835918957 59.513527083251056 L 1239.6431057746495 59.619817767034704 L 1239.680674721736 59.72628360346185 L 1239.7158866762923 59.832913946037564 L 1239.7487381171516 59.939698131816456 L 1239.7792257591973 60.046625482468926 L 1239.807346553691 60.153685305349015 L 1239.8330976885766 60.26086689456366 L 1239.8564765887616 60.36815953204325 L 1239.877480916376 60.47555248861345 L 1239.896108571004 60.5830350250681 L 1239.9123576898965 60.69059639324311 L 1239.9262266481544 60.79822583709131 L 1239.9377140588936 60.905912593758 L 1239.9468187733828 61.01364589465726 L 1239.953539881158 61.12141496654876 L 1239.957876710114 61.22920903261514 L 1239.9598288265715 61.337017313539604 M 1239.9599498166276 95.6752857281 L 1239.958757356724 95.78309627301661 L 1239.955180096258 95.89089603696858 L 1239.9492183929524 95.99867424006935 L 1239.9408728429732 96.1064201045884 L 1239.930144280868 96.21412285602908 L 1239.9170337794842 96.321771724206 L 1239.9015426498609 96.42935594432204 L 1239.8836724410983 96.53686475804484 L 1239.8634249402023 96.64428741458265 L 1239.840802171906 96.75161317175929 L 1239.8158063984677 96.85883129708851 L 1239.7884401194437 96.96593106884711 L 1239.758706071439 97.07290177714718 L 1239.726607227834 97.17973272500701 L 1239.6921467984857 97.28641322942086 L 1239.655328229409 97.39293262242717 L 1239.6161552024298 97.49928025217542 L 1239.574631634818 97.60544548399125 L 1239.530761678896 97.71141770143996 L 1239.4845497216227 97.8171863073881 L 1239.4360003841552 97.92274072506322 L 1239.3851185213873 98.02807039911151 L 1239.3319092214622 98.13316479665336 L 1239.276377805266 98.23801340833658 L 1239.2185298258942 98.34260574938737 L 1239.158371068096 98.4469313606588 L 1239.0959075476972 98.55097980967666 L 1239.0311455109982 98.65474069168278 L 1238.964091434148 98.7582036306754 L 1238.894752022499 98.86135828044685 L 1238.8231342099346 98.96419432561812 L 1238.7492451581759 99.0667014826704 L 1238.6730922560666 99.16886950097337 L 1238.594683118834 99.27068816381038 L 1238.514025587326 99.37214728939998 L 1238.4311277272284 99.47323673191414 L 1238.3459978282585 99.57394638249288 L 1238.2586444033352 99.67426617025505 L 1238.169076187728 99.77418606330548 L 1238.0773021381838 99.87369606973812 L 1237.9833314320315 99.97278623863527 L 1237.887173466263 100.0714466610626 L 1237.7888378565947 100.1696674710601 L 1237.688334436506 100.2674388466286 L 1237.5856732562547 100.36475101071201 L 1237.4808645818737 100.46159423217506 L 1237.373918894143 100.55795882677627 L 1237.264846887542 100.65383515813649 L 1237.1536594691806 100.74921363870249 L 1237.040367757708 100.84408473070569 L 1236.9249830822012 100.93843894711594 L 1236.807516981031 101.03226685259024 L 1236.6879812007103 101.12555906441622 L 1236.566387694717 101.21830625345046 L 1236.4427486223005 101.31049914505132 L 1236.3170763472651 101.4021285200065 L 1236.1893834367336 101.49318521545483 L 1236.0596826598908 101.58366012580265 L 1235.9279869867057 101.67354420363434 L 1235.7943095866365 101.762828460617 L 1235.6586638273116 101.85150396839936 L 1235.5210632731937 101.93956185950451 L 1235.3815216842238 102.02699332821673 L 1235.2400530144446 102.11378963146201 L 1235.0966714106048 102.19994208968237 L 1234.9513912107454 102.28544208770374 L 1234.8042269427658 102.37028107559762 L 1234.6551933229696 102.45445056953588 L 1234.5043052545948 102.53794215263929 L 1234.3515778263225 102.6207474758191 L 1234.197026310768 102.70285825861201 L 1234.0406661629545 102.78426629000816 L 1233.8825130187663 102.86496342927225 L 1233.7225826933861 102.9449416067576 L 1233.5608911797128 103.02419282471311 L 1233.3974546467634 103.10270915808303 L 1233.232289438055 103.18048275529944 L 1233.0654120699708 103.25750583906745 L 1232.8968392301083 103.33377070714286 L 1232.726587775611 103.4092697331024 L 1232.554674731483 103.48399536710642 L 1232.381117288885 103.55794013665377 L 1232.2059328034165 103.63109664732913 L 1232.0291387933805 103.70345758354237 L 1231.8507529380304 103.7750157092602 L 1231.6707930758032 103.84576386872968 L 1231.489277202535 103.91569498719377 L 1231.3062234696622 103.98480207159896 L 1231.1216501824051 104.05307821129438 L 1230.935575797939 104.12051657872294 L 1230.748018923547 104.1871104301041 L 1230.5589983147604 104.25285310610823 L 1230.3685328734825 104.31773803252251 L 1230.1766416460987 104.38175872090837 L 1229.983343821572 104.44490876925032 L 1229.7886587295234 104.50718186259614 L 1229.5926058383002 104.5685717736884 L 1229.395204753028 104.62907236358716 L 1229.196475213651 104.68867758228383 L 1228.9964370929572 104.7473814693062 L 1228.7951103945923 104.80517815431453 L 1228.592515251058 104.86206185768845 L 1228.3886719217005 104.91802689110501 L 1228.183600790682 104.97306765810755 L 1227.9773223649454 105.02717865466522 L 1227.769857272161 105.08035446972343 L 1227.5612262586653 105.13258978574503 L 1227.3514501873858 105.18387937924192 L 1227.1405500357548 105.23421812129749 L 1226.9285468936118 105.28360097807949 L 1226.7154619610942 105.33202301134341 L 1226.5013165465177 105.37947937892625 L 1226.2861320642455 105.4259653352308 L 1226.0699300325464 105.4714762317002 L 1225.8527320714431 105.51600751728267 L 1225.634559900551 105.55955473888682 L 1225.4154353369056 105.60211354182675 L 1225.1953802927803 105.64367967025764 L 1224.9744167734962 105.68424896760128 L 1224.7525668752212 105.72381737696173 L 1224.5298527827601 105.76238094153106 L 1224.3062967673368 105.79993580498493 L 1224.0819211843661 105.83647821186828 L 1223.8567484712198 105.8720045079709 L 1223.6308011449814 105.90651114069276 L 1223.4041018001953 105.93999465939936 L 1223.1766731066068 105.97245171576672 L 1222.9485378068962 106.00387906411626 L 1222.7197187144027 106.03427356173933 L 1222.4902387108455 106.0636321692115 L 1222.2601207440334 106.09195195069648 L 1222.0293878255713 106.11923007423972 L 1221.798063028559 106.14546381205162 L 1221.5661694852831 106.17065054078024 L 1221.333730384905 106.1947877417737 L 1221.100768971141 106.21787300133201 L 1220.867308539938 106.23990401094846 L 1220.633372437145 106.26087856754044 L 1220.3989840561771 106.28079457366978 L 1220.1641668356772 106.29965003775246 L 1219.9289442571715 106.31744307425777 L 1219.6933398427218 106.3341719038969 L 1219.4573771525736 106.34983485380084 L 1219.2210797827988 106.36443035768762 L 1218.9844713629377 106.37795695601905 L 1218.7475755536352 106.39041329614655 L 1218.5104160442747 106.40179813244647 L 1218.2730165506096 106.4121103264447 L 1218.0354008123911 106.42134884693041 L 1217.7975925909955 106.42951277005928 L 1217.5596156670465 106.43660127944577 L 1217.3214938380381 106.44261366624485 L 1217.0832509159547 106.44754932922287 L 1216.8449107248905 106.45140777481762 L 1216.6064970986654 106.45418861718778 L 1216.3680338784438 106.45589157825142 L 1216.1295449103486 106.45651648771386 L 1215.8910540430782 106.45606328308465 L 1215.6525851255203 106.4545320096839 L 1215.414162004368 106.45192282063768 L 1215.175808521735 106.44823597686269 L 1214.9375485127707 106.44347184704026 L 1214.6994058032774 106.43763090757939 L 1214.4614042073276 106.43071374256917 L 1214.2235675248828 106.42272104372033 L 1213.9859195394129 106.41365361029608 L 1213.7484840155184 106.40351234903224 L 1213.5112846965537 106.39229827404645 L 1213.2743453022533 106.38001250673689 L 1213.037689526359 106.36665627567004 L 1212.8013410342512 106.35223091645787 L 1212.5653234605822 106.33673787162431 L 1212.3296604069126 106.32017869046089 L 1212.0943754393516 106.30255502887195 L 1211.8594920861995 106.28386864920897 L 1211.6250338355962 106.26412142009434 L 1211.3910241331712 106.2433153162345 L 1211.1574863797 106.22145241822251 L 1210.924443928763 106.19853491232995 L 1210.6919200844113 106.17456509028831 L 1210.4599380988354 106.14954534905984 L 1210.2285211700407 106.12347819059778 L 1209.9976924395273 106.09636622159626 L 1209.7674749899757 106.06821215322961 L 1209.5378918429392 106.03901880088118 L 1209.308965956541 106.0087890838619 L 1209.080720223179 105.97752602511825 L 1208.8531774672363 105.94523275093007 L 1208.626360442799 105.91191249059789 L 1208.4002918313804 105.87756857611994 L 1208.1749942396534 105.84220444185907 L 1207.9504901971895 105.8058236241992 L 1207.7268021542056 105.76842976119184 L 1207.5039524793197 105.73002659219209 L 1207.2819634573136 105.69061795748485 L 1207.0608572869044 105.65020779790075 L 1206.8406560785252 105.60880015442207 L 1206.6213818521128 105.56639916777867 L 1206.4030565349076 105.52300907803387 L 1206.1857019592594 105.47863422416049 L 1205.9693398604443 105.43327904360692 L 1205.753991874492 105.38694807185344 L 1205.5396795360216 105.33964594195861 L 1205.3264242760886 105.291377384096 L 1205.114247420041 105.24214722508117 L 1204.9031701853878 105.19196038788901 L 1204.6932136796765 105.1408218911614 L 1204.4843988983826 105.08873684870541 L 1204.2767467228102 105.03571046898188 L 1204.070277918004 104.98174805458457 L 1203.8650131306724 104.92685500170998 L 1203.6609728871229 104.87103679961766 L 1203.45817759121 104.81429903008126 L 1203.2566475222943 104.7566473668305 L 1203.0564028332144 104.69808757498365 L 1202.857463548273 104.63862551047107 L 1202.6598495612322 104.57826711944969 L 1202.4635806333263 104.51701843770829 L 1202.2686763912845 104.45488559006402 L 1202.0751563253684 104.39187478974986 L 1201.8830397874237 104.32799233779335 L 1201.692345988944 104.26324462238642 L 1201.50309399915 104.19763811824667 L 1201.315302743083 104.13117938596986 L 1201.1289909997124 104.0638750713738 L 1200.944177400057 103.99573190483389 L 1200.760880425323 103.92675670060999 L 1200.5791184050547 103.85695635616503 L 1200.398909515303 103.7863378514753 L 1200.2202717768068 103.71490824833242 L 1200.043223053191 103.64267468963719 L 1199.8677810491802 103.56964439868527 L 1199.6939633088286 103.4958246784449 L 1199.5217872137657 103.4212229108266 L 1199.3512699814576 103.34584655594495 L 1199.1824286634849 103.26970315137261 L 1199.015280143839 103.19280031138662 L 1198.8498411372325 103.11514572620688 L 1198.6861281874285 103.03674716122718 L 1198.524157665585 102.9576124562387 L 1198.3639457686197 102.87774952464599 L 1198.2055085175887 102.79716635267567 L 1198.048861756085 102.71587099857777 L 1197.894021148654 102.63387159181995 L 1197.7410021792277 102.55117633227457 L 1197.5898201495754 102.46779348939864 L 1197.440490177774 102.383731401407 L 1197.2930271966966 102.29899847443839 L 1197.1474459525182 102.21360318171489 L 1197.0037610032416 102.12755406269459 L 1196.8619867172424 102.04085972221772 L 1196.722137271831 101.95352882964605 L 1196.5842266518353 101.86557011799609 L 1196.4482686482022 101.77699238306568 L 1196.3142768566192 101.68780448255453 L 1196.1822646761534 101.59801533517833 L 1196.0522453079132 101.50763391977702 L 1195.9242317537266 101.41666927441683 L 1195.7982368148428 101.32513049548646 L 1195.6742730906503 101.23302673678755 L 1195.5523529774186 101.14036720861921 L 1195.4324886670572 101.04716117685703 L 1195.3146921458972 100.95341796202653 L 1195.1989751934927 100.85914693837105 L 1195.0853493814427 100.76435753291443 L 1194.9738260722331 100.66905922451821 L 1194.8644164181026 100.5732615429338 L 1194.7571313599249 100.47697406784954 L 1194.6519816261166 100.3802064279327 L 1194.5489777315636 100.28296829986664 L 1194.4481299765694 100.18526940738312 L 1194.3494484458251 100.08711952028997 L 1194.2529430074023 99.98852845349413 L 1194.1586233117637 99.8895060660201 L 1194.0664987908008 99.79006226002413 L 1193.9765786568887 99.69020697980392 L 1193.8888719019656 99.5899502108043 L 1193.8033872966344 99.48930197861863 L 1193.720133389284 99.38827234798623 L 1193.6391185052362 99.28687142178599 L 1193.5603507459114 99.18510934002603 L 1193.48383798802 99.08299627882971 L 1193.4095878827743 98.98054244941808 L 1193.3376078551225 98.87775809708869 L 1193.267905103008 98.7746535001911 L 1193.2004865966474 98.67123896909912 L 1193.1353590778353 98.56752484517966 L 1193.0725290592695 98.46352149975867 L 1193.0120028238994 98.35923933308405 L 1192.953786424298 98.25468877328554 L 1192.8978856820565 98.14988027533201 L 1192.844306187203 98.04482431998592 L 1192.7930532976425 97.93953141275524 L 1192.7441321386204 97.83401208284296 L 1192.6975476022128 97.72827688209414 L 1192.6533043468337 97.62233638394075 L 1192.6114067967724 97.5162011823443 L 1192.5718591417485 97.40988189073651 L 1192.534665336495 97.30338914095798 L 1192.499829100361 97.19673358219488 L 1192.4673539169414 97.08992587991426 L 1192.4372430337273 96.9829767147973 L 1192.4094994617822 96.87589678167143 L 1192.3841259754397 96.7686967884407 L 1192.3611251120278 96.66138745501512 L 1192.3404991716134 96.55397951223858 L 1192.3222502167732 96.44648370081588 L 1192.3063800723878 96.33891077023856 L 1192.2928903254583 96.23127147771005 L 1192.2817823249482 96.1235765870699 L 1192.273057181648 96.01583686771744 L 1192.266715768065 95.90806309353479 L 1192.2627587183354 95.80026604180959 L 1192.2611864281607 95.69245649215716" stroke-miterlimit="10" stroke-width="2.7769845610000004" stroke-dasharray=""/></g><g><g/><text fill="black" stroke="none" font-family="sans-serif" font-size="11pt" font-style="normal" font-weight="normal" text-decoration="normal" x="1165.6023513995065" y="123.98419304699999" text-anchor="start" dominant-baseline="alphabetic" xml:space="preserve">user-system-db</text></g></g><g><path fill="white" stroke="black" paint-order="fill stroke markers" d=" M 319.93210090423173 182.790924927 L 336.2673042042317 182.790924927 L 336.2673042042317 1256.0137817369996 L 319.93210090423173 1256.0137817369996 L 319.93210090423173 182.790924927" stroke-miterlimit="10" stroke-width="1.3612669416666667" stroke-dasharray=""/><path fill="white" stroke="black" paint-order="fill stroke markers" d=" M 582.6909902584634 228.529494167 L 599.0261935584635 228.529494167 L 599.0261935584635 1256.0137817369996 L 582.6909902584634 1256.0137817369996 L 582.6909902584634 228.529494167" stroke-miterlimit="10" stroke-width="1.3612669416666667" stroke-dasharray=""/><path fill="white" stroke="black" paint-order="fill stroke markers" d=" M 971.4057223647109 318.373112317 L 987.740925664711 318.373112317 L 987.740925664711 455.588820037 L 971.4057223647109 455.588820037 L 971.4057223647109 318.373112317" stroke-miterlimit="10" stroke-width="1.3612669416666667" stroke-dasharray=""/><path fill="white" stroke="black" paint-order="fill stroke markers" d=" M 1207.9429513486275 364.111681557 L 1224.2781546486276 364.111681557 L 1224.2781546486276 409.850250797 L 1207.9429513486275 409.850250797 L 1207.9429513486275 364.111681557" stroke-miterlimit="10" stroke-width="1.3612669416666667" stroke-dasharray=""/><path fill="white" stroke="black" paint-order="fill stroke markers" d=" M 807.9982652328124 501.327389277 L 824.3334685328125 501.327389277 L 824.3334685328125 547.065958517 L 807.9982652328124 547.065958517 L 807.9982652328124 501.327389277" stroke-miterlimit="10" stroke-width="1.3612669416666667" stroke-dasharray=""/><path fill="white" stroke="black" paint-order="fill stroke markers" d=" M 971.4057223647109 592.804527757 L 987.740925664711 592.804527757 L 987.740925664711 730.0202354769998 L 971.4057223647109 730.0202354769998 L 971.4057223647109 592.804527757" stroke-miterlimit="10" stroke-width="1.3612669416666667" stroke-dasharray=""/><path fill="white" stroke="black" paint-order="fill stroke markers" d=" M 1092.4259419477812 775.7588047169997 L 1108.7611452477813 775.7588047169997 L 1108.7611452477813 821.4973739569997 L 1092.4259419477812 821.4973739569997 L 1092.4259419477812 775.7588047169997" stroke-miterlimit="10" stroke-width="1.3612669416666667" stroke-dasharray=""/><path fill="white" stroke="black" paint-order="fill stroke markers" d=" M 971.4057223647109 1002.8181305869995 L 987.740925664711 1002.8181305869995 L 987.740925664711 1140.0338383069995 L 971.4057223647109 1140.0338383069995 L 971.4057223647109 1002.8181305869995" stroke-miterlimit="10" stroke-width="1.3612669416666667" stroke-dasharray=""/><path fill="white" stroke="black" paint-order="fill stroke markers" d=" M 1207.9429513486275 1048.5566998269994 L 1224.2781546486276 1048.5566998269994 L 1224.2781546486276 1094.2952690669995 L 1207.9429513486275 1094.2952690669995 L 1207.9429513486275 1048.5566998269994" stroke-miterlimit="10" stroke-width="1.3612669416666667" stroke-dasharray=""/><g><g><rect fill="white" stroke="none" x="148.64006405203773" y="161.555160637" width="96.16038765015625" height="21.23576429"/></g><text fill="black" stroke="none" font-family="sans-serif" font-size="11pt" font-style="normal" font-weight="normal" text-decoration="normal" x="151.09034454703772" y="176.25684360699998" text-anchor="start" dominant-baseline="alphabetic" xml:space="preserve">POST /signup</text></g><g><path fill="none" stroke="black" paint-order="fill stroke markers" d=" M 73.50841485 182.790924927 L 306.4827835205651 182.790924927" stroke-miterlimit="10" stroke-width="1.3612669416666667" stroke-dasharray=""/><g transform="translate(319.93210090423173,182.790924927) translate(-319.93210090423173,-182.790924927)"><path fill="black" stroke="none" paint-order="stroke fill markers" d=" M 306.31943148756505 175.98459021866665 L 319.93210090423173 182.790924927 L 306.31943148756505 189.59725963533333 Z"/></g></g><g><g><rect fill="white" stroke="none" x="417.1112107915234" y="207.293729877" width="84.73587287964844" height="21.23576429"/></g><text fill="black" stroke="none" font-family="sans-serif" font-size="11pt" font-style="normal" font-weight="normal" text-decoration="normal" x="419.5614912865234" y="221.99541284699998" text-anchor="start" dominant-baseline="alphabetic" xml:space="preserve">registerUser</text></g><g><path fill="none" stroke="black" paint-order="fill stroke markers" d=" M 336.2673042042317 228.529494167 L 569.2416728747968 228.529494167" stroke-miterlimit="10" stroke-width="1.3612669416666667" stroke-dasharray=""/><g transform="translate(582.6909902584634,228.529494167) translate(-582.6909902584634,-228.529494167)"><path fill="black" stroke="none" paint-order="stroke fill markers" d=" M 569.0783208417968 221.72315945866666 L 582.6909902584634 228.529494167 L 569.0783208417968 235.33582887533333 Z"/></g></g><g><g><rect fill="white" stroke="none" x="737.1465215827982" y="297.137348027" width="96.13887275757813" height="21.23576429"/></g><text fill="black" stroke="none" font-family="sans-serif" font-size="11pt" font-style="normal" font-weight="normal" text-decoration="normal" x="739.5968020777982" y="311.83903099699995" text-anchor="start" dominant-baseline="alphabetic" xml:space="preserve">existsByEmail</text></g><g><path fill="none" stroke="black" paint-order="fill stroke markers" d=" M 599.0261935584635 318.373112317 L 957.9564049810442 318.373112317" stroke-miterlimit="10" stroke-width="1.3612669416666667" stroke-dasharray=""/><g transform="translate(971.4057223647109,318.373112317) translate(-971.4057223647109,-318.373112317)"><path fill="black" stroke="none" paint-order="stroke fill markers" d=" M 957.7930529480442 311.56677760866665 L 971.4057223647109 318.373112317 L 957.7930529480442 325.17944702533333 Z"/></g></g><g><g><rect fill="white" stroke="none" x="1017.9901229774896" y="342.875917267" width="159.70363105835938" height="21.23576429"/></g><text fill="black" stroke="none" font-family="sans-serif" font-size="11pt" font-style="normal" font-weight="normal" text-decoration="normal" x="1020.4404034724896" y="357.57760023699996" text-anchor="start" dominant-baseline="alphabetic" xml:space="preserve">check if the email exists</text></g><g><path fill="none" stroke="black" paint-order="fill stroke markers" d=" M 987.740925664711 364.111681557 L 1194.4936339649607 364.111681557" stroke-miterlimit="10" stroke-width="1.3612669416666667" stroke-dasharray=""/><g transform="translate(1207.9429513486275,364.111681557) translate(-1207.9429513486275,-364.111681557)"><path fill="black" stroke="none" paint-order="stroke fill markers" d=" M 1194.3302819319608 357.30534684866666 L 1207.9429513486275 364.111681557 L 1194.3302819319608 370.91801626533334 Z"/></g></g><g><g><rect fill="white" stroke="none" x="1055.4704162514154" y="388.614486507" width="84.74304451050781" height="21.23576429"/></g><text fill="black" stroke="none" font-family="sans-serif" font-size="11pt" font-style="normal" font-weight="normal" text-decoration="normal" x="1057.9206967464154" y="403.31616947699996" text-anchor="start" dominant-baseline="alphabetic" xml:space="preserve">result: False</text></g><g><path fill="none" stroke="black" paint-order="fill stroke markers" d=" M 1207.9429513486275 409.850250797 L 989.782826077211 409.850250797" stroke-miterlimit="10" stroke-width="1.3612669416666667" stroke-dasharray="6.53408132"/><g transform="translate(987.740925664711,409.850250797) translate(-987.740925664711,-409.850250797)"><path fill="none" stroke="black" paint-order="fill stroke markers" d=" M 1001.736170047765 403.60685331137654 L 989.2712255302605 409.850250797 L 1001.736170047765 416.09364828262346" stroke-miterlimit="10" stroke-width="1.3612669416666667"/></g></g><g><g><rect fill="white" stroke="none" x="742.8444357063333" y="434.353055747" width="84.74304451050781" height="21.23576429"/></g><text fill="black" stroke="none" font-family="sans-serif" font-size="11pt" font-style="normal" font-weight="normal" text-decoration="normal" x="745.2947162013334" y="449.05473871699996" text-anchor="start" dominant-baseline="alphabetic" xml:space="preserve">result: False</text></g><g><path fill="none" stroke="black" paint-order="fill stroke markers" d=" M 971.4057223647109 455.588820037 L 601.0680939709636 455.588820037" stroke-miterlimit="10" stroke-width="1.3612669416666667" stroke-dasharray="6.53408132"/><g transform="translate(599.0261935584635,455.588820037) translate(-599.0261935584635,-455.588820037)"><path fill="none" stroke="black" paint-order="fill stroke markers" d=" M 613.0214379415175 449.34542255137654 L 600.5564934240131 455.588820037 L 613.0214379415175 461.83221752262347" stroke-miterlimit="10" stroke-width="1.3612669416666667"/></g></g><g><g><rect fill="white" stroke="none" x="644.841505175052" y="480.091624987" width="117.34144844117188" height="21.23576429"/></g><text fill="black" stroke="none" font-family="sans-serif" font-size="11pt" font-style="normal" font-weight="normal" text-decoration="normal" x="647.291785670052" y="494.79330795699997" text-anchor="start" dominant-baseline="alphabetic" xml:space="preserve">encryptPassword</text></g><g><path fill="none" stroke="black" paint-order="fill stroke markers" d=" M 599.0261935584635 501.327389277 L 794.5489478491457 501.327389277" stroke-miterlimit="10" stroke-width="1.3612669416666667" stroke-dasharray=""/><g transform="translate(807.9982652328124,501.327389277) translate(-807.9982652328124,-501.327389277)"><path fill="black" stroke="none" paint-order="stroke fill markers" d=" M 794.3855958161457 494.52105456866667 L 807.9982652328124 501.327389277 L 794.3855958161457 508.13372398533335 Z"/></g></g><g><g><rect fill="white" stroke="none" x="618.3561841301301" y="525.830194227" width="170.31209053101563" height="21.23576429"/></g><text fill="black" stroke="none" font-family="sans-serif" font-size="11pt" font-style="normal" font-weight="normal" text-decoration="normal" x="620.8064646251302" y="540.531877197" text-anchor="start" dominant-baseline="alphabetic" xml:space="preserve">result: password SHA256</text></g><g><path fill="none" stroke="black" paint-order="fill stroke markers" d=" M 807.9982652328124 547.065958517 L 601.0680939709636 547.065958517" stroke-miterlimit="10" stroke-width="1.3612669416666667" stroke-dasharray="6.53408132"/><g transform="translate(599.0261935584635,547.065958517) translate(-599.0261935584635,-547.065958517)"><path fill="none" stroke="black" paint-order="fill stroke markers" d=" M 613.0214379415175 540.8225610313766 L 600.5564934240131 547.065958517 L 613.0214379415175 553.3093560026234" stroke-miterlimit="10" stroke-width="1.3612669416666667"/></g></g><g><g><rect fill="white" stroke="none" x="767.2825079109232" y="571.5687634669999" width="35.86690010132813" height="21.23576429"/></g><text fill="black" stroke="none" font-family="sans-serif" font-size="11pt" font-style="normal" font-weight="normal" text-decoration="normal" x="769.7327884059232" y="586.2704464369999" text-anchor="start" dominant-baseline="alphabetic" xml:space="preserve">save</text></g><g><path fill="none" stroke="black" paint-order="fill stroke markers" d=" M 599.0261935584635 592.804527757 L 957.9564049810442 592.804527757" stroke-miterlimit="10" stroke-width="1.3612669416666667" stroke-dasharray=""/><g transform="translate(971.4057223647109,592.804527757) translate(-971.4057223647109,-592.804527757)"><path fill="black" stroke="none" paint-order="stroke fill markers" d=" M 957.7930529480442 585.9981930486666 L 971.4057223647109 592.804527757 L 957.7930529480442 599.6108624653333 Z"/></g></g><g><g><rect fill="white" stroke="none" x="1061.590731358642" y="617.3073327069999" width="80.67001594605469" height="21.23576429"/></g><text fill="black" stroke="none" font-family="sans-serif" font-size="11pt" font-style="normal" font-weight="normal" text-decoration="normal" x="1064.041011853642" y="632.0090156769999" text-anchor="start" dominant-baseline="alphabetic" xml:space="preserve">persist user</text></g><g><path fill="none" stroke="black" paint-order="fill stroke markers" d=" M 987.740925664711 638.5430969969999 L 1202.6612356149608 638.5430969969999" stroke-miterlimit="10" stroke-width="1.3612669416666667" stroke-dasharray=""/><g transform="translate(1216.1105529986276,638.5430969969999) translate(-1216.1105529986276,-638.5430969969999)"><path fill="black" stroke="none" paint-order="stroke fill markers" d=" M 1202.4978835819609 631.7367622886666 L 1216.1105529986276 638.5430969969999 L 1202.4978835819609 645.3494317053332 Z"/></g></g><g><g><rect fill="white" stroke="none" x="1062.0023219348138" y="663.0459019469998" width="79.84683479371094" height="21.23576429"/></g><text fill="black" stroke="none" font-family="sans-serif" font-size="11pt" font-style="normal" font-weight="normal" text-decoration="normal" x="1064.4526024298139" y="677.7475849169998" text-anchor="start" dominant-baseline="alphabetic" xml:space="preserve">result: User</text></g><g><path fill="none" stroke="black" paint-order="fill stroke markers" d=" M 1216.1105529986276 684.2816662369999 L 989.782826077211 684.2816662369999" stroke-miterlimit="10" stroke-width="1.3612669416666667" stroke-dasharray="6.53408132"/><g transform="translate(987.740925664711,684.2816662369999) translate(-987.740925664711,-684.2816662369999)"><path fill="none" stroke="black" paint-order="fill stroke markers" d=" M 1001.736170047765 678.0382687513764 L 989.2712255302605 684.2816662369999 L 1001.736170047765 690.5250637226233" stroke-miterlimit="10" stroke-width="1.3612669416666667"/></g></g><g><g><rect fill="white" stroke="none" x="745.2925405647318" y="708.7844711869998" width="79.84683479371094" height="21.23576429"/></g><text fill="black" stroke="none" font-family="sans-serif" font-size="11pt" font-style="normal" font-weight="normal" text-decoration="normal" x="747.7428210597318" y="723.4861541569998" text-anchor="start" dominant-baseline="alphabetic" xml:space="preserve">result: User</text></g><g><path fill="none" stroke="black" paint-order="fill stroke markers" d=" M 971.4057223647109 730.0202354769998 L 601.0680939709636 730.0202354769998" stroke-miterlimit="10" stroke-width="1.3612669416666667" stroke-dasharray="6.53408132"/><g transform="translate(599.0261935584635,730.0202354769998) translate(-599.0261935584635,-730.0202354769998)"><path fill="none" stroke="black" paint-order="fill stroke markers" d=" M 613.0214379415175 723.7768379913764 L 600.5564934240131 730.0202354769998 L 613.0214379415175 736.2636329626232" stroke-miterlimit="10" stroke-width="1.3612669416666667"/></g></g><g><g><rect fill="white" stroke="none" x="794.7790221214036" y="754.5230404269997" width="101.8940912634375" height="21.23576429"/></g><text fill="black" stroke="none" font-family="sans-serif" font-size="11pt" font-style="normal" font-weight="normal" text-decoration="normal" x="797.2293026164036" y="769.2247233969997" text-anchor="start" dominant-baseline="alphabetic" xml:space="preserve">generateToken</text></g><g><path fill="none" stroke="black" paint-order="fill stroke markers" d=" M 599.0261935584635 775.7588047169997 L 1078.9766245641144 775.7588047169997" stroke-miterlimit="10" stroke-width="1.3612669416666667" stroke-dasharray=""/><g transform="translate(1092.4259419477812,775.7588047169997) translate(-1092.4259419477812,-775.7588047169997)"><path fill="black" stroke="none" paint-order="stroke fill markers" d=" M 1078.8132725311145 768.9524700086664 L 1092.4259419477812 775.7588047169997 L 1078.8132725311145 782.5651394253331 Z"/></g></g><g><g><rect fill="white" stroke="none" x="812.3201827048997" y="800.2616096669997" width="66.81177009644531" height="21.23576429"/></g><text fill="black" stroke="none" font-family="sans-serif" font-size="11pt" font-style="normal" font-weight="normal" text-decoration="normal" x="814.7704631998997" y="814.9632926369997" text-anchor="start" dominant-baseline="alphabetic" xml:space="preserve">result: jwt</text></g><g><path fill="none" stroke="black" paint-order="fill stroke markers" d=" M 1092.4259419477812 821.4973739569997 L 601.0680939709636 821.4973739569997" stroke-miterlimit="10" stroke-width="1.3612669416666667" stroke-dasharray="6.53408132"/><g transform="translate(599.0261935584635,821.4973739569997) translate(-599.0261935584635,-821.4973739569997)"><path fill="none" stroke="black" paint-order="fill stroke markers" d=" M 613.0214379415175 815.2539764713763 L 600.5564934240131 821.4973739569997 L 613.0214379415175 827.7407714426231" stroke-miterlimit="10" stroke-width="1.3612669416666667"/></g></g><g><g><rect fill="white" stroke="none" x="420.77262589162103" y="846.0001789069996" width="77.41304267945313" height="21.23576429"/></g><text fill="black" stroke="none" font-family="sans-serif" font-size="11pt" font-style="normal" font-weight="normal" text-decoration="normal" x="423.22290638662105" y="860.7018618769996" text-anchor="start" dominant-baseline="alphabetic" xml:space="preserve">result: user</text></g><g><path fill="none" stroke="black" paint-order="fill stroke markers" d=" M 582.6909902584634 867.2359431969996 L 338.30920461673173 867.2359431969996" stroke-miterlimit="10" stroke-width="1.3612669416666667" stroke-dasharray="6.53408132"/><g transform="translate(336.2673042042317,867.2359431969996) translate(-336.2673042042317,-867.2359431969996)"><path fill="none" stroke="black" paint-order="fill stroke markers" d=" M 350.2625485872858 860.9925457113762 L 337.7976040697812 867.2359431969996 L 350.2625485872858 873.479340682623" stroke-miterlimit="10" stroke-width="1.3612669416666667"/></g></g><g><g><rect fill="white" stroke="none" x="158.0137365373893" y="891.7387481469996" width="77.41304267945313" height="21.23576429"/></g><text fill="black" stroke="none" font-family="sans-serif" font-size="11pt" font-style="normal" font-weight="normal" text-decoration="normal" x="160.46401703238928" y="906.4404311169995" text-anchor="start" dominant-baseline="alphabetic" xml:space="preserve">result: user</text></g><g><path fill="none" stroke="black" paint-order="fill stroke markers" d=" M 319.93210090423173 912.9745124369996 L 75.55031526249999 912.9745124369996" stroke-miterlimit="10" stroke-width="1.3612669416666667" stroke-dasharray="6.53408132"/><g transform="translate(73.50841485,912.9745124369996) translate(-73.50841485,-912.9745124369996)"><path fill="none" stroke="black" paint-order="fill stroke markers" d=" M 87.50365923305402 906.7311149513762 L 75.03871471554947 912.9745124369996 L 87.50365923305402 919.217909922623" stroke-miterlimit="10" stroke-width="1.3612669416666667"/></g></g><g><g><rect fill="white" stroke="none" x="737.1465215827982" y="981.5823662969995" width="96.13887275757813" height="21.23576429"/></g><text fill="black" stroke="none" font-family="sans-serif" font-size="11pt" font-style="normal" font-weight="normal" text-decoration="normal" x="739.5968020777982" y="996.2840492669994" text-anchor="start" dominant-baseline="alphabetic" xml:space="preserve">existsByEmail</text></g><g><path fill="none" stroke="black" paint-order="fill stroke markers" d=" M 599.0261935584635 1002.8181305869995 L 957.9564049810442 1002.8181305869995" stroke-miterlimit="10" stroke-width="1.3612669416666667" stroke-dasharray=""/><g transform="translate(971.4057223647109,1002.8181305869995) translate(-971.4057223647109,-1002.8181305869995)"><path fill="black" stroke="none" paint-order="stroke fill markers" d=" M 957.7930529480442 996.0117958786661 L 971.4057223647109 1002.8181305869995 L 957.7930529480442 1009.6244652953328 Z"/></g></g><g><g><rect fill="white" stroke="none" x="1017.9901229774896" y="1027.3209355369995" width="159.70363105835938" height="21.23576429"/></g><text fill="black" stroke="none" font-family="sans-serif" font-size="11pt" font-style="normal" font-weight="normal" text-decoration="normal" x="1020.4404034724896" y="1042.0226185069996" text-anchor="start" dominant-baseline="alphabetic" xml:space="preserve">check if the email exists</text></g><g><path fill="none" stroke="black" paint-order="fill stroke markers" d=" M 987.740925664711 1048.5566998269994 L 1194.4936339649607 1048.5566998269994" stroke-miterlimit="10" stroke-width="1.3612669416666667" stroke-dasharray=""/><g transform="translate(1207.9429513486275,1048.5566998269994) translate(-1207.9429513486275,-1048.5566998269994)"><path fill="black" stroke="none" paint-order="stroke fill markers" d=" M 1194.3302819319608 1041.7503651186662 L 1207.9429513486275 1048.5566998269994 L 1194.3302819319608 1055.3630345353326 Z"/></g></g><g><g><rect fill="white" stroke="none" x="1058.594966117138" y="1073.0595047769996" width="78.4939447790625" height="21.23576429"/></g><text fill="black" stroke="none" font-family="sans-serif" font-size="11pt" font-style="normal" font-weight="normal" text-decoration="normal" x="1061.045246612138" y="1087.7611877469997" text-anchor="start" dominant-baseline="alphabetic" xml:space="preserve">result: True</text></g><g><path fill="none" stroke="black" paint-order="fill stroke markers" d=" M 1207.9429513486275 1094.2952690669995 L 989.782826077211 1094.2952690669995" stroke-miterlimit="10" stroke-width="1.3612669416666667" stroke-dasharray="6.53408132"/><g transform="translate(987.740925664711,1094.2952690669995) translate(-987.740925664711,-1094.2952690669995)"><path fill="none" stroke="black" paint-order="fill stroke markers" d=" M 1001.736170047765 1088.0518715813762 L 989.2712255302605 1094.2952690669995 L 1001.736170047765 1100.5386665526228" stroke-miterlimit="10" stroke-width="1.3612669416666667"/></g></g><g><g><rect fill="white" stroke="none" x="745.968985572056" y="1118.7980740169996" width="78.4939447790625" height="21.23576429"/></g><text fill="black" stroke="none" font-family="sans-serif" font-size="11pt" font-style="normal" font-weight="normal" text-decoration="normal" x="748.419266067056" y="1133.4997569869997" text-anchor="start" dominant-baseline="alphabetic" xml:space="preserve">result: True</text></g><g><path fill="none" stroke="black" paint-order="fill stroke markers" d=" M 971.4057223647109 1140.0338383069995 L 601.0680939709636 1140.0338383069995" stroke-miterlimit="10" stroke-width="1.3612669416666667" stroke-dasharray="6.53408132"/><g transform="translate(599.0261935584635,1140.0338383069995) translate(-599.0261935584635,-1140.0338383069995)"><path fill="none" stroke="black" paint-order="fill stroke markers" d=" M 613.0214379415175 1133.7904408213763 L 600.5564934240131 1140.0338383069995 L 613.0214379415175 1146.2772357926228" stroke-miterlimit="10" stroke-width="1.3612669416666667"/></g></g><g><g><rect fill="white" stroke="none" x="355.5972947758984" y="1164.5366432569997" width="207.76370491089844" height="21.23576429"/></g><text fill="black" stroke="none" font-family="sans-serif" font-size="11pt" font-style="normal" font-weight="normal" text-decoration="normal" x="358.0475752708984" y="1179.2383262269998" text-anchor="start" dominant-baseline="alphabetic" xml:space="preserve">result: Error user already exists</text></g><g><path fill="none" stroke="black" paint-order="fill stroke markers" d=" M 582.6909902584634 1185.7724075469996 L 338.30920461673173 1185.7724075469996" stroke-miterlimit="10" stroke-width="1.3612669416666667" stroke-dasharray="6.53408132"/><g transform="translate(336.2673042042317,1185.7724075469996) translate(-336.2673042042317,-1185.7724075469996)"><path fill="none" stroke="black" paint-order="fill stroke markers" d=" M 350.2625485872858 1179.5290100613763 L 337.7976040697812 1185.7724075469996 L 350.2625485872858 1192.015805032623" stroke-miterlimit="10" stroke-width="1.3612669416666667"/></g></g><g><g><rect fill="white" stroke="none" x="92.83840542166662" y="1210.2752124969998" width="207.76370491089844" height="21.23576429"/></g><text fill="black" stroke="none" font-family="sans-serif" font-size="11pt" font-style="normal" font-weight="normal" text-decoration="normal" x="95.28868591666662" y="1224.9768954669998" text-anchor="start" dominant-baseline="alphabetic" xml:space="preserve">result: Error user already exists</text></g><g><path fill="none" stroke="black" paint-order="fill stroke markers" d=" M 319.93210090423173 1231.5109767869997 L 75.55031526249999 1231.5109767869997" stroke-miterlimit="10" stroke-width="1.3612669416666667" stroke-dasharray="6.53408132"/><g transform="translate(73.50841485,1231.5109767869997) translate(-73.50841485,-1231.5109767869997)"><path fill="none" stroke="black" paint-order="fill stroke markers" d=" M 87.50365923305402 1225.2675793013764 L 75.03871471554947 1231.5109767869997 L 87.50365923305402 1237.754374272623" stroke-miterlimit="10" stroke-width="1.3612669416666667"/></g></g><g><g/><path fill="none" stroke="black" paint-order="fill stroke markers" d=" M 16.335203299999996 253.03229911699998 L 1273.2837645486275 253.03229911699998 L 1273.2837645486275 1256.0137817369996 L 16.335203299999996 1256.0137817369996 L 16.335203299999996 253.03229911699998 Z" stroke-miterlimit="10" stroke-width="2.3336004714285714" stroke-dasharray=""/><path fill="white" stroke="black" paint-order="fill stroke markers" d=" M 16.335203299999996 253.03229911699998 L 16.335203299999996 272.634543077 L 62.69440689707031 272.634543077 L 72.49552887707031 262.833421097 L 72.49552887707031 253.03229911699998 L 16.335203299999996 253.03229911699998" stroke-miterlimit="10" stroke-width="2.3336004714285714" stroke-dasharray=""/><text fill="black" stroke="none" font-family="sans-serif" font-size="8.8pt" font-style="normal" font-weight="bold" text-decoration="normal" x="32.67040659999999" y="266.100461757" text-anchor="start" dominant-baseline="alphabetic" xml:space="preserve">alt</text><g><rect fill="white" stroke="none" x="86.38045168207032" y="254.339115381" width="63.561953201914065" height="16.988611432000003"/></g><text fill="black" stroke="none" font-family="sans-serif" font-size="8.8pt" font-style="normal" font-weight="bold" text-decoration="normal" x="88.83073217707032" y="266.100461757" text-anchor="start" dominant-baseline="alphabetic" xml:space="preserve">[new user]</text><g><path fill="none" stroke="black" paint-order="fill stroke markers" d=" M 16.335203299999996 937.4773173869995 L 1273.2837645486275 937.4773173869995" stroke-miterlimit="10" stroke-width="2.3336004714285714" stroke-dasharray="4.083800825"/></g><g/><g><rect fill="white" stroke="none" x="86.38045168207032" y="938.7841336509995" width="85.07455696167969" height="16.988611432000003"/></g><text fill="black" stroke="none" font-family="sans-serif" font-size="8.8pt" font-style="normal" font-weight="bold" text-decoration="normal" x="88.83073217707032" y="950.5454800269995" text-anchor="start" dominant-baseline="alphabetic" xml:space="preserve">[existing user]</text></g><g/></g><g/><g/><g/><g/><g/><g/><g/></g></svg>