<svg version="1.1" xmlns="http://www.w3.org/2000/svg" xmlns:xlink="http://www.w3.org/1999/xlink" width="791" height="1221"><desc>title%20User%20login%0A%0Aactor%20Client%0Aparticipant%20AuthController%0Aparticipant%20AuthService%0Aparticipant%20UserRepository%0Aparticipant%20JJWT%0Adatabase%20user-system-db%0A%20%20%0Aalt%20OK%20-%20200%0A%0A%20%20Client%20-%3E%20AuthController%20%3A%20%2Flogin%0A%20%20activate%20AuthController%0A%20%20AuthController%20-%3EJJWT%20%3A%20parseJwtAndGetMail%0A%20%20activate%20JJWT%0A%20%20JJWT%20--%3E%3EAuthController%20%3A%20Result%3A%20email%0A%20%20deactivate%20JJWT%0A%0A%20%20AuthController%20-%3E%20AuthService%20%3A%20loginUser%0A%20%20activate%20AuthService%0A%20%20%0A%20%20AuthService%20-%3E%20UserRepository%20%3A%20findByEmail%0A%20%20activate%20UserRepository%0A%20%20UserRepository%20-%3E%20user-system-db%20%3A%20get%20User%20by%20email%0A%20%20activate%20user-system-db%0A%20%20UserRepository%20%3C%3C--%20user-system-db%20%3A%20result%3A%20User%0A%20%20deactivate%20user-system-db%0A%20%20AuthService%20%3C%3C--UserRepository%20%3A%20result%3A%20User%0A%20%20deactivate%20UserRepository%0A%20%20%0A%20%20AuthService%20-%3E%20UserRepository%20%3A%20update%0A%20%20activate%20UserRepository%0A%20%20UserRepository%20-%3E%20user-system-db%20%3A%20update%20login%20time%0A%20%20activate%20user-system-db%0A%20%20UserRepository%20%3C%3C--%20user-system-db%20%3A%20result%3A%20User%0A%20%20deactivate%20user-system-db%0A%20%20AuthService%20%3C%3C--UserRepository%20%3A%20result%3A%20User%0A%20%20deactivate%20UserRepository%0A%20%20%0A%20%20AuthService%20-%3E%20JJWT%20%3A%20generateToken%0A%20%20activate%20JJWT%0A%20%20JJWT%20--%3E%3E%20AuthService%20%3A%20result%3A%20new%20jwt%0A%20%20deactivate%20JJWT%0A%0A%20%20AuthService%20--%3E%3E%20AuthController%20%3A%20result%3A%20User%0A%20%20AuthController%20--%3E%3E%20Client%20%3A%20result%3A%20User%0A%0Aelse%20Unauthorized%20-%20401%0A%20%20%0A%20%20Client%20-%3E%20AuthController%20%3A%20%2Flogin%0A%20%20AuthController%20-%3EJJWT%20%3A%20parseJwtAndGetMail%0A%20%20activate%20JJWT%0A%20%20JJWT%20--%3E%3EAuthController%20%3A%20Result%3A%20error%0A%20%20deactivate%20JJWT%0A%20%20AuthController%20--%3E%3E%20Client%20%3A%20Result%3A%20error%0A%20%20%0Aend%0A%0A%0A%0A%0Adeactivate%20AuthService%0Adeactivate%20AuthController</desc><defs/><g><g/><g/><g/><g/><g/><g/><g/><g/><g/><g/><g/><g/><g/><g/><g/><g/><g/><g/><g/><g/><g><rect fill="white" stroke="none" x="0" y="0" width="791" height="1221"/></g><g><text fill="black" stroke="none" font-family="sans-serif" font-size="16.5pt" font-style="normal" font-weight="normal" text-decoration="normal" x="346.4028995724401" y="24.50280495" text-anchor="start" dominant-baseline="alphabetic" xml:space="preserve">User login</text></g><g/><g><path fill="none" stroke="black" paint-order="fill stroke markers" d=" M 73.50841485 128.884754037 L 73.50841485 1221.7098548069994" stroke-miterlimit="10" stroke-width="1.3612669416666667" stroke-dasharray="12.565541,5.445067766666667"/><path fill="none" stroke="black" paint-order="fill stroke markers" d=" M 205.88791056204428 128.884754037 L 205.88791056204428 1221.7098548069994" stroke-miterlimit="10" stroke-width="1.3612669416666667" stroke-dasharray="12.565541,5.445067766666667"/><path fill="none" stroke="black" paint-order="fill stroke markers" d=" M 344.0448336363255 128.884754037 L 344.0448336363255 1221.7098548069994" stroke-miterlimit="10" stroke-width="1.3612669416666667" stroke-dasharray="12.565541,5.445067766666667"/><path fill="none" stroke="black" paint-order="fill stroke markers" d=" M 485.8595936246693 128.884754037 L 485.8595936246693 1221.7098548069994" stroke-miterlimit="10" stroke-width="1.3612669416666667" stroke-dasharray="12.565541,5.445067766666667"/><path fill="none" stroke="black" paint-order="fill stroke markers" d=" M 606.8798132077396 128.884754037 L 606.8798132077396 1221.7098548069994" stroke-miterlimit="10" stroke-width="1.3612669416666667" stroke-dasharray="12.565541,5.445067766666667"/><path fill="none" stroke="black" paint-order="fill stroke markers" d=" M 710.1727513948803 128.884754037 L 710.1727513948803 1221.7098548069994" stroke-miterlimit="10" stroke-width="1.3612669416666667" stroke-dasharray="12.565541,5.445067766666667"/></g><g><g><path fill="white" stroke="black" paint-order="fill stroke markers" d=" M 82.819480731 59.786844078 A 9.311065881 9.311065881 0 1 1 82.81947607546743 59.77753301367084 M 73.50841485 69.097909959 L 73.50841485 89.026857985 M 61.747068473999995 76.285399411 L 85.26976122599999 76.285399411 M 73.50841485 89.026857985 L 61.747068473999995 107.648989747 M 73.50841485 89.026857985 L 85.26976122599999 107.648989747" stroke-miterlimit="10" stroke-width="2.7769845610000004" stroke-dasharray=""/></g><g><g/><text fill="black" stroke="none" font-family="sans-serif" font-size="11pt" font-style="normal" font-weight="normal" text-decoration="normal" x="54.76826439833984" y="123.98419304699999" text-anchor="start" dominant-baseline="alphabetic" xml:space="preserve">Client</text></g><path fill="none" stroke="none"/><g><path fill="white" stroke="black" paint-order="fill stroke markers" d=" M 141.31026448105598 84.779705127 L 270.4655566430325 84.779705127 L 270.4655566430325 128.884754037 L 141.31026448105598 128.884754037 L 141.31026448105598 84.779705127 Z" stroke-miterlimit="10" stroke-width="2.613632528" stroke-dasharray=""/></g><g><g/><text fill="black" stroke="none" font-family="sans-serif" font-size="11pt" font-style="normal" font-weight="normal" text-decoration="normal" x="159.033960061556" y="112.549550737" text-anchor="start" dominant-baseline="alphabetic" xml:space="preserve">AuthController</text></g><path fill="none" stroke="none"/><g><path fill="white" stroke="black" paint-order="fill stroke markers" d=" M 286.8007599430325 84.779705127 L 401.2889073296185 84.779705127 L 401.2889073296185 128.884754037 L 286.8007599430325 128.884754037 L 286.8007599430325 84.779705127 Z" stroke-miterlimit="10" stroke-width="2.613632528" stroke-dasharray=""/></g><g><g/><text fill="black" stroke="none" font-family="sans-serif" font-size="11pt" font-style="normal" font-weight="normal" text-decoration="normal" x="304.52445552353254" y="112.549550737" text-anchor="start" dominant-baseline="alphabetic" xml:space="preserve">AuthService</text></g><path fill="none" stroke="none"/><g><path fill="white" stroke="black" paint-order="fill stroke markers" d=" M 417.6241106296185 84.779705127 L 554.0950766197201 84.779705127 L 554.0950766197201 128.884754037 L 417.6241106296185 128.884754037 L 417.6241106296185 84.779705127 Z" stroke-miterlimit="10" stroke-width="2.613632528" stroke-dasharray=""/></g><g><g/><text fill="black" stroke="none" font-family="sans-serif" font-size="11pt" font-style="normal" font-weight="normal" text-decoration="normal" x="435.3478062101185" y="112.549550737" text-anchor="start" dominant-baseline="alphabetic" xml:space="preserve">UserRepository</text></g><path fill="none" stroke="none"/><g><path fill="white" stroke="black" paint-order="fill stroke markers" d=" M 570.4302799197201 84.779705127 L 643.3293464957592 84.779705127 L 643.3293464957592 128.884754037 L 570.4302799197201 128.884754037 L 570.4302799197201 84.779705127 Z" stroke-miterlimit="10" stroke-width="2.613632528" stroke-dasharray=""/></g><g><g/><text fill="black" stroke="none" font-family="sans-serif" font-size="11pt" font-style="normal" font-weight="normal" text-decoration="normal" x="588.1539755002201" y="112.549550737" text-anchor="start" dominant-baseline="alphabetic" xml:space="preserve">JJWT</text></g><g><path fill="white" stroke="black" paint-order="fill stroke markers" d=" M 686.3233545768803 96.867755569 L 686.3233545768803 62.563828639 L 734.0221482128802 62.563828639 L 734.0221482128802 96.867755569" stroke-miterlimit="10" stroke-width="2.7769845610000004" stroke-dasharray=""/><path fill="white" stroke="black" paint-order="fill stroke markers" d=" M 734.0221482128802 61.3713587981 L 734.0209557529765 61.47916934301662 L 734.0173784925105 61.58696910696859 L 734.0114167892052 61.69474731006935 L 734.0030712392258 61.8024931745884 L 733.9923426771206 61.91019592602908 L 733.9792321757368 62.017844794206 L 733.9637410461136 62.125429014322044 L 733.945870837351 62.232937828044854 L 733.9256233364549 62.34036048458265 L 733.9030005681587 62.44768624175929 L 733.8780047947204 62.55490436708851 L 733.8506385156963 62.66200413884712 L 733.8209044676918 62.76897484714718 L 733.7888056240866 62.87580579500701 L 733.7543451947386 62.982486299420856 L 733.7175266256618 63.08900569242717 L 733.6783535986824 63.19535332217542 L 733.6368300310706 63.30151855399125 L 733.5929600751487 63.40749077143996 L 733.5467481178753 63.5132593773881 L 733.498198780408 63.618813795063225 L 733.4473169176399 63.724143469111524 L 733.394107617715 63.82923786665337 L 733.3385762015188 63.93408647833659 L 733.2807282221468 64.03867881938739 L 733.2205694643486 64.1430044306588 L 733.15810594395 64.24705287967667 L 733.0933439072508 64.35081376168277 L 733.0262898304007 64.45427670067541 L 732.9569504187518 64.55743135044686 L 732.8853326061871 64.66026739561813 L 732.8114435544285 64.7627745526704 L 732.7352906523195 64.86494257097338 L 732.6568815150866 64.96676123381039 L 732.5762239835785 65.06822035939997 L 732.4933261234811 65.16930980191414 L 732.4081962245112 65.27001945249287 L 732.3208427995878 65.37033924025505 L 732.2312745839806 65.47025913330548 L 732.1395005344366 65.56976913973813 L 732.0455298282841 65.66885930863528 L 731.9493718625156 65.7675197310626 L 731.8510362528475 65.86574054106009 L 731.7505328327586 65.96351191662859 L 731.6478716525075 66.06082408071202 L 731.5430629781265 66.15766730217506 L 731.4361172903956 66.25403189677627 L 731.3270452837946 66.3499082281365 L 731.2158578654333 66.4452867087025 L 731.1025661539608 66.54015780070569 L 730.9871814784539 66.63451201711595 L 730.8697153772838 66.72833992259025 L 730.7501795969629 66.82163213441623 L 730.6285860909696 66.91437932345046 L 730.5049470185533 67.00657221505134 L 730.3792747435178 67.0982015900065 L 730.2515818329864 67.18925828545483 L 730.1218810561434 67.27973319580266 L 729.9901853829584 67.36961727363435 L 729.8565079828892 67.45890153061701 L 729.7208622235643 67.54757703839935 L 729.5832616694464 67.6356349295045 L 729.4437200804765 67.72306639821673 L 729.3022514106972 67.80986270146201 L 729.1588698068574 67.89601515968236 L 729.0135896069983 67.98151515770375 L 728.8664253390184 68.06635414559763 L 728.7173917192223 68.15052363953589 L 728.5665036508474 68.2340152226393 L 728.413776222575 68.31682054581911 L 728.2592247070208 68.39893132861202 L 728.1028645592073 68.48033936000816 L 727.944711415019 68.56103649927225 L 727.7847810896387 68.6410146767576 L 727.6230895759655 68.72026589471311 L 727.4596530430163 68.79878222808303 L 727.2944878343077 68.87655582529945 L 727.1276104662234 68.95357890906746 L 726.9590376263609 69.02984377714286 L 726.7887861718638 69.10534280310242 L 726.6168731277356 69.18006843710643 L 726.4433156851376 69.25401320665378 L 726.2681311996693 69.32716971732913 L 726.0913371896332 69.39953065354239 L 725.9129513342832 69.47108877926021 L 725.7329914720559 69.54183693872967 L 725.5514755987879 69.61176805719379 L 725.3684218659149 69.68087514159897 L 725.183848578658 69.74915128129439 L 724.9977741941917 69.81658964872294 L 724.8102173197998 69.88318350010411 L 724.6211967110131 69.94892617610824 L 724.4307312697352 70.01381110252252 L 724.2388400423514 70.07783179090838 L 724.0455422178246 70.14098183925032 L 723.8508571257761 70.20325493259614 L 723.6548042345529 70.26464484368842 L 723.4574031492807 70.32514543358717 L 723.2586736099037 70.38475065228383 L 723.0586354892099 70.44345453930622 L 722.857308790845 70.50125122431453 L 722.6547136473109 70.55813492768844 L 722.4508703179531 70.61409996110503 L 722.2457991869348 70.66914072810756 L 722.0395207611981 70.72325172466522 L 721.8320556684138 70.77642753972344 L 721.623424654918 70.82866285574504 L 721.4136485836386 70.87995244924193 L 721.2027484320076 70.9302911912975 L 720.9907452898645 70.9796740480795 L 720.7776603573469 71.0280960813434 L 720.5635149427706 71.07555244892625 L 720.3483304604982 71.12203840523081 L 720.132128428799 71.16754930170019 L 719.9149304676959 71.21208058728268 L 719.6967582968039 71.25562780888683 L 719.4776337331583 71.29818661182675 L 719.2575786890329 71.33975274025764 L 719.0366151697489 71.38032203760127 L 718.8147652714739 71.41989044696174 L 718.5920511790129 71.45845401153106 L 718.3684951635894 71.49600887498494 L 718.144119580619 71.5325512818683 L 717.9189468674726 71.56807757797091 L 717.6929995412343 71.60258421069277 L 717.4663001964481 71.63606772939937 L 717.2388715028596 71.66852478576672 L 717.0107362031488 71.69995213411627 L 716.7819171106555 71.73034663173934 L 716.5524371070982 71.7597052392115 L 716.3223191402861 71.78802502069648 L 716.0915862218241 71.81530314423973 L 715.8602614248117 71.84153688205163 L 715.6283678815358 71.86672361078024 L 715.3959287811577 71.8908608117737 L 715.1629673673937 71.913946071332 L 714.9295069361907 71.93597708094846 L 714.6955708333977 71.95695163754044 L 714.4611824524297 71.97686764366978 L 714.2263652319298 71.99572310775245 L 713.9911426534242 72.01351614425778 L 713.7555382389745 72.03024497389691 L 713.5195755488262 72.04590792380084 L 713.2832781790515 72.06050342768764 L 713.0466697591905 72.07403002601906 L 712.8097739498879 72.08648636614654 L 712.5726144405274 72.09787120244648 L 712.3352149468623 72.1081833964447 L 712.0975992086438 72.11742191693043 L 711.8597909872482 72.12558584005929 L 711.6218140632991 72.13267434944576 L 711.3836922342907 72.13868673624485 L 711.1454493122076 72.14362239922286 L 710.9071091211432 72.14748084481762 L 710.6686954949182 72.1502616871878 L 710.4302322746964 72.15196464825142 L 710.1917433066013 72.15258955771385 L 709.9532524393308 72.15213635308466 L 709.7147835217729 72.15060507968391 L 709.4763604006207 72.14799589063767 L 709.2380069179877 72.1443090468627 L 708.9997469090233 72.13954491704027 L 708.7616041995301 72.1337039775794 L 708.5236026035805 72.12678681256918 L 708.2857659211356 72.11879411372033 L 708.0481179356657 72.10972668029609 L 707.8106824117712 72.09958541903224 L 707.5734830928064 72.08837134404646 L 707.336543698506 72.07608557673689 L 707.0998879226117 72.06272934567005 L 706.8635394305039 72.04830398645788 L 706.6275218568348 72.0328109416243 L 706.3918588031653 72.01625176046089 L 706.1565738356041 71.99862809887196 L 705.9216904824522 71.97994171920898 L 705.6872322318488 71.96019449009434 L 705.453222529424 71.9393883862345 L 705.2196847759526 71.91752548822251 L 704.9866423250157 71.89460798232996 L 704.754118480664 71.87063816028832 L 704.5221364950881 71.84561841905983 L 704.2907195662935 71.81955126059778 L 704.05989083578 71.79243929159627 L 703.8296733862285 71.7642852232296 L 703.6000902391919 71.73509187088118 L 703.3711643527936 71.7048621538619 L 703.1429186194316 71.67359909511825 L 702.915375863489 71.64130582093009 L 702.6885588390517 71.6079855605979 L 702.4624902276332 71.57364164611994 L 702.2371926359062 71.53827751185906 L 702.0126885934421 71.50189669419922 L 701.7890005504582 71.46450283119185 L 701.5661508755724 71.42609966219209 L 701.3441618535662 71.38669102748484 L 701.1230556831572 71.34628086790075 L 700.9028544747778 71.30487322442208 L 700.6835802483656 71.26247223777868 L 700.4652549311604 71.21908214803388 L 700.247900355512 71.17470729416048 L 700.031538256697 71.12935211360693 L 699.8161902707446 71.08302114185344 L 699.6018779322744 71.0357190119586 L 699.3886226723413 70.987450454096 L 699.1764458162938 70.93822029508118 L 698.9653685816405 70.88803345788901 L 698.7554120759291 70.8368949611614 L 698.5465972946353 70.7848099187054 L 698.3389451190629 70.73178353898187 L 698.1324763142568 70.67782112458457 L 697.9272115269251 70.62292807170999 L 697.7231712833757 70.56710986961765 L 697.5203759874627 70.51037210008127 L 697.3188459185469 70.4527204368305 L 697.1186012294672 70.39416064498364 L 696.9196619445256 70.33469858047107 L 696.7220479574848 70.27434018944969 L 696.525779029579 70.2130915077083 L 696.3308747875371 70.15095866006402 L 696.1373547216213 70.08794785974987 L 695.9452381836765 70.02406540779336 L 695.7545443851967 69.95931769238642 L 695.5652923954027 69.89371118824668 L 695.3775011393358 69.82725245596986 L 695.1911893959651 69.7599481413738 L 695.0063757963097 69.69180497483389 L 694.8230788215757 69.62282977060998 L 694.6413168013075 69.55302942616503 L 694.4611079115559 69.4824109214753 L 694.2824701730597 69.41098131833243 L 694.1054214494437 69.3387477596372 L 693.9299794454329 69.26571746868528 L 693.7561617050815 69.19189774844492 L 693.5839856100185 69.1172959808266 L 693.4134683777102 69.04191962594494 L 693.2446270597376 68.96577622137262 L 693.0774785400916 68.88887338138663 L 692.9120395334853 68.81121879620689 L 692.7483265836811 68.73282023122718 L 692.5863560618378 68.6536855262387 L 692.4261441648725 68.573822594646 L 692.2677069138414 68.49323942267567 L 692.1110601523376 68.41194406857777 L 691.9562195449067 68.32994466181995 L 691.8032005754803 68.24724940227456 L 691.6520185458281 68.16386655939866 L 691.5026885740268 68.07980447140702 L 691.3552255929493 67.99507154443839 L 691.2096443487708 67.90967625171488 L 691.0659593994943 67.8236271326946 L 690.9241851134951 67.73693279221771 L 690.7843356680837 67.64960189964606 L 690.646425048088 67.56164318799608 L 690.5104670444549 67.47306545306569 L 690.3764752528718 67.38387755255452 L 690.2444630724061 67.29408840517834 L 690.1144437041658 67.20370698977703 L 689.9864301499792 67.11274234441683 L 689.8604352110954 67.02120356548647 L 689.736471486903 66.92909980678756 L 689.6145513736714 66.83644027861922 L 689.4946870633099 66.74323424685704 L 689.37689054215 66.64949103202653 L 689.2611735897456 66.55522000837107 L 689.1475477776953 66.46043060291444 L 689.036024468486 66.3651322945182 L 688.9266148143553 66.2693346129338 L 688.8193297561776 66.17304713784955 L 688.7141800223693 66.07627949793272 L 688.6111761278163 65.97904136986665 L 688.510328372822 65.88134247738313 L 688.4116468420779 65.78319259028999 L 688.3151414036549 65.68460152349414 L 688.2208217080165 65.58557913602012 L 688.1286971870535 65.48613533002413 L 688.0387770531413 65.38628004980393 L 687.9510702982184 65.2860232808043 L 687.8655856928871 65.18537504861862 L 687.7823317855368 65.08434541798623 L 687.7013169014888 64.982944491786 L 687.622549142164 64.88118241002603 L 687.5460363842727 64.77906934882972 L 687.4717862790269 64.67661551941809 L 687.3998062513754 64.5738311670887 L 687.3301034992606 64.47072657019112 L 687.2626849929002 64.36731203909913 L 687.1975574740882 64.26359791517966 L 687.1347274555222 64.15959456975868 L 687.0742012201521 64.05531240308405 L 687.0159848205506 63.95076184328555 L 686.9600840783094 63.84595334533201 L 686.9065045834559 63.74089738998592 L 686.8552516938951 63.63560448275524 L 686.8063305348733 63.530085152842965 L 686.7597459984654 63.42434995209415 L 686.7155027430865 63.318409453940745 L 686.6736051930251 63.2122742523443 L 686.6340575380013 63.105954960736526 L 686.5968637327477 62.99946221095797 L 686.5620274966138 62.892806652194885 L 686.5295523131941 62.78599894991426 L 686.4994414299802 62.679049784797314 L 686.4716978580349 62.57196985167143 L 686.4463243716925 62.464769858440704 L 686.4233235082805 62.357460525015114 L 686.4026975678661 62.25005258223858 L 686.3844486130259 62.14255677081588 L 686.3685784686405 62.03498384023857 L 686.355088721711 61.92734454771006 L 686.3439807212008 61.81964965706991 L 686.3352555779007 61.71190993771744 L 686.3289141643178 61.6041361635348 L 686.3249571145882 61.49633911180959 L 686.3233848244134 61.38852956215717 L 686.3241974510214 61.28071829544265 L 686.32739491315 61.172916092702856 L 686.3329768910556 61.06513373406823 L 686.3409428265453 60.957381997684834 L 686.351291923032 60.84967165863649 L 686.3640231456149 60.74201348786736 L 686.379135221182 60.6344182511048 L 686.3966266385386 60.526896707782825 L 686.4164956485574 60.41945960996616 L 686.438740264354 60.31211770127506 L 686.4633582614855 60.204881715810956 L 686.4903471781724 60.097762377083015 L 686.5197043155458 59.99077039693585 L 686.5514267379164 59.88391647447831 L 686.5855112730683 59.7772112950136 L 686.6219545125763 59.67066552897075 L 686.660752812147 59.56428983083758 L 686.7019022919827 59.45809483809524 L 686.7453988371698 59.35209117015452 L 686.7912380980898 59.24628942729389 L 686.839415490855 59.14070018959944 L 686.8899261977663 59.03533401590697 L 686.9427651677948 58.93020144274604 L 686.997927117088 58.82531298328635 L 687.0554065294966 58.72067912628645 L 687.1151976571274 58.61631033504484 L 687.1772945209173 58.51221704635366 L 687.2416909112318 58.40840966945505 L 687.3083803884856 58.30489858500019 L 687.3773562837864 58.20169414401126 L 687.4486116996022 58.098806666846365 L 687.5221395104509 57.996246442167475 L 687.5979323636125 57.894023725911595 L 687.6759826798649 57.79214874026516 L 687.7562826542417 57.69063167264185 L 687.838824256812 57.58948267466382 L 687.9235992334848 57.488711861146584 L 688.0105991068327 57.38832930908751 L 688.0998151769411 57.28834505665816 L 688.1912385222772 57.18876910220045 L 688.2848600005827 57.08961140322686 L 688.3806702497877 56.99088187542464 L 688.4786596889473 56.8925903916643 L 688.5788185191992 56.794746781012314 L 688.6811367247437 56.6973608277482 L 688.7856040738455 56.60044227038614 L 688.892210119857 56.5040008007011 L 689.0009442022623 56.40804606275968 L 689.1117954477436 56.31258765195572 L 689.224752771269 56.217635114050736 L 689.3398048772001 56.12319794421941 L 689.4569402604222 56.029285586100016 L 689.5761472074946 55.93590743085011 L 689.697413797822 55.8430728162074 L 689.8207279048465 55.75079102555599 L 689.9460771972599 55.65907128699804 L 690.0734491402376 55.56792277243099 L 690.2028309966914 55.47735459663031 L 690.3342098285435 55.387375816338135 L 690.4675724980201 55.29799542935749 L 690.6029056689655 55.20922237365261 L 690.7401958081754 55.12106552645507 L 690.8794291867501 55.033533703376136 L 691.020591881468 54.94663565752517 L 691.1636697761771 54.86038007863435 L 691.3086485632073 54.77477559218968 L 691.4555137448006 54.689830758568455 L 691.6042506345613 54.60555407218327 L 691.7548443589242 54.52195396063252 L 691.9072798586426 54.439038783857704 L 692.0615418902934 54.35681683330739 L 692.217615027802 54.27529633110813 L 692.3754836639848 54.19448542924221 L 692.5351320121098 54.114392208732454 L 692.6965441074749 54.03502467883419 L 692.8597038090054 53.95639077623426 L 693.0245948008669 53.878498364257396 L 693.1912005940978 53.801355232079885 L 693.3595045282576 53.72496909395066 L 693.5294897730929 53.649347588419886 L 693.7011393302212 53.57449827757509 L 693.8744360348296 53.50042864628498 L 694.0493625573921 53.42714610145097 L 694.2259014054023 53.35465797126647 L 694.4040349251223 53.28297150448409 L 694.5837453033489 53.21209386969077 L 694.7650145691938 53.14203215459092 L 694.9478245958815 53.072793365297684 L 695.1321571025617 53.00438442563227 L 695.3179936561374 52.93681217643165 L 695.505315673108 52.870083374864436 L 695.6941044214279 52.80420469375517 L 695.8843410223798 52.739182720917064 L 696.0760064524619 52.67502395849323 L 696.269081545291 52.611734822306424 L 696.4635469935187 52.54932164121754 L 696.6593833507623 52.48779065649267 L 696.856571033549 52.427148021179015 L 697.0550903232753 52.36739979948956 L 697.2549213681773 52.3085519661967 L 697.4560441853171 52.25061040603471 L 697.6584386625807 52.19358091311133 L 697.862084560689 52.13746919032833 L 698.0669615152218 52.08228084881122 L 698.2730490386544 52.02802140734818 L 698.4803265224064 51.974696291838114 L 698.6887732389018 51.922310834748146 L 698.898368343643 51.87087027458034 L 699.109090877294 51.82037975534783 L 699.320919767777 51.770844326060484 L 699.5338338323796 51.72226894021993 L 699.7478117798728 51.674658455324284 L 699.96283221264 51.62801763238236 L 700.1788736288172 51.58235113543759 L 700.3959144244427 51.5376635311016 L 700.6139328956181 51.49395928809759 L 700.8329072406776 51.451242776813444 L 701.0528155623695 51.409518268864694 L 701.2736358700446 51.368789936667355 L 701.4953460818563 51.32906185302072 L 701.7179240269681 51.29033799070003 L 701.9413474477711 51.252622222059266 L 702.1655940021093 51.21591831864385 L 702.3906412655142 51.18022995081354 L 702.6164667334469 51.14556068737539 L 702.843047823549 51.11191399522683 L 703.0703618779002 51.079293239009054 L 703.2983861652842 51.047701680770494 L 703.5270978834627 51.01714247964064 L 703.7564741614543 50.98761869151416 L 703.9864920618224 50.95913326874524 L 704.2171285829686 50.93168905985244 L 704.448360661433 50.90528880923376 L 704.6801651742003 50.87993515689227 L 704.9125189410126 50.85563063817208 L 705.1453987266868 50.83237768350481 L 705.3787812434384 50.81017861816654 L 705.6126431532102 50.78903566204531 L 705.846961070006 50.768950929419105 L 706.0817115622295 50.749926428744466 L 706.3168711550271 50.7319640624556 L 706.5524163326355 50.71506562677416 L 706.7883235407331 50.69923281152964 L 707.0245691887959 50.684467199990365 L 707.2611296524557 50.6707702687052 L 707.4979812758635 50.658143387355835 L 707.7351003740541 50.64658781861989 L 707.9724632353156 50.63610471804463 L 708.2100461235593 50.62669513393135 L 708.4478252806946 50.61836000723063 L 708.685776929004 50.61110017144819 L 708.9238772735207 50.604916352561574 L 709.1621025044088 50.5998091689475 L 709.4004287993439 50.595779131320086 L 709.6388323258949 50.592826642679725 L 709.8772892439077 50.59095199827282 L 710.1157757078896 50.59015538556226 L 710.3542678693926 50.59043688420866 L 710.5927418793995 50.59179646606236 L 710.8311738907079 50.594233995166334 L 711.0695400603154 50.59774922776969 L 711.3078165518036 50.6023418123521 L 711.5459795377221 50.60801128965893 L 711.7840052019707 50.61475709274719 L 712.0218697421811 50.622578547042174 L 712.2595493720978 50.63147487040497 L 712.4970203239559 50.64144517321068 L 712.7342588508578 50.6524884584373 L 712.9712412291487 50.66460362176552 L 713.2079437607883 50.67778945168912 L 713.4443427757207 50.69204462963607 L 713.6804146342413 50.70736773010048 L 713.9161357293609 50.72375722078505 L 714.1514824891666 50.74121146275439 L 714.3864313791785 50.759728710598836 L 714.6209589047032 50.77930711260903 L 714.855041613184 50.79994471096109 L 715.0886560965447 50.821639441912396 L 715.3217789935318 50.844389136007905 L 715.5543869920499 50.86819151829718 L 715.786456831493 50.893044208561825 L 716.0179653050704 50.91894472155353 L 716.2488892621279 50.94589046724256 L 716.4792056104621 50.973878751076825 L 716.7088913186301 51.00290677425126 L 716.9379234182525 51.03297163398772 L 717.1662790063101 51.064070323825305 L 717.3939352474346 51.09619973392093 L 717.6208693761913 51.129356651360375 L 717.8470586993567 51.16353776047952 L 718.072480598187 51.198739643195935 L 718.2971125306799 51.23495877935069 L 718.5209320338296 51.27219154706035 L 718.7439167258722 51.31043422307917 L 718.9660443085241 51.349682983171405 L 719.1872925692127 51.38993390249377 L 719.4076393832958 51.43118295598788 L 719.6270627162756 51.47342601878273 L 719.845540626002 51.51665886660727 L 720.063051264866 51.56087717621274 L 720.2795728819848 51.60607652580503 L 720.4950838253772 51.65225239548683 L 720.7095625441284 51.69940016770967 L 720.9229875905454 51.74751512773561 L 721.1353376223013 51.79659246410874 L 721.3465914045701 51.84662726913632 L 721.5567278121492 51.89761453937955 L 721.7657258315733 51.949549176153894 L 721.9735645632145 52.00242598603895 L 722.1802232233728 52.0562396813978 L 722.3856811463545 52.11098488090573 L 722.5899177865384 52.16665611008844 L 722.7929127204308 52.22324780186939 L 722.9946456487073 52.28075429712656 L 723.1950963982434 52.339169845258354 L 723.394244924131 52.398488604758626 L 723.5920713116836 52.458704643800864 L 723.7885557784273 52.51981194083135 L 723.9836786760791 52.581804385171296 L 724.1774204925118 52.64467577762793 L 724.3697618537052 52.708419831114405 L 724.5606835256837 52.77303017127848 L 724.7501664164388 52.83850033713999 L 724.9381915778397 52.90482378173691 L 725.1247402075268 52.97199387278003 L 725.3097936507925 53.040003893316246 L 725.4933334024468 53.108847042400164 L 725.6753411086675 53.17851643577425 L 725.8557985688356 53.24900510655722 L 726.0346877373554 53.32030600594074 L 726.2119907254591 53.39241200389429 L 726.387689802996 53.465315889878156 L 726.5617674002043 53.5390103735645 L 726.7342061094696 53.61348808556637 L 726.9049886870646 53.68874157817461 L 727.0740980548738 53.76476332610268 L 727.2415173021014 53.84154572723915 L 727.4072296869623 53.91908110340788 L 727.571218638356 53.99736170113587 L 727.733467757524 54.07637969242858 L 727.8939608196896 54.156127175552726 L 728.0526817756804 54.236596175826456 L 728.209614753533 54.3177786464168 L 728.3647440600803 54.39966646914434 L 728.5180541825212 54.48225145529506 L 728.6695297899709 54.56552534643915 L 728.819155734995 54.6494798152569 L 728.9669170551238 54.73410646637139 L 729.1127989743483 54.81939683718802 L 729.2567869045981 54.9053423987408 L 729.3988664472004 54.99193455654518 L 729.5390233943191 55.079164651457546 L 729.6772437303763 55.16702396054111 L 729.8135136334537 55.25550369793815 L 729.9478194766745 55.344595015748695 L 730.0801478295663 55.43428900491518 L 730.2104854594039 55.52457669611344 L 730.3388193325333 55.615449060649595 L 730.4651366156739 55.706897011362926 L 730.5894246772026 55.79891140353456 L 730.711671088417 55.891483035801954 L 730.8318636247777 55.98460265107904 L 730.9499902671314 56.07826093748187 L 731.0660392029121 56.17244852925987 L 731.179998827323 56.26715600773234 L 731.2918577444966 56.36237390223035 L 731.4016047686345 56.45809269104382 L 731.5092289251256 56.55430280237361 L 731.6147194516441 56.65099461528878 L 731.7180657992251 56.74815846068861 L 731.81925763332 56.84578462226952 L 731.9182848348299 56.943863337496715 L 732.0151375011169 57.0423847985804 L 732.1098059469953 57.14133915345658 L 732.2022807056992 57.240716506772216 L 732.29255252983 57.34050692087479 L 732.3806123922803 57.44070041680606 L 732.4664514871374 57.54128697529992 L 732.5500612305634 57.64225653778434 L 732.6314332616533 57.74359900738722 L 732.7105594432722 57.84530424994605 L 732.7874318628677 57.94736209502132 L 732.8620428332619 58.04976233691358 L 732.93438489342 58.15249473568397 L 733.0044508091961 58.25554901817823 L 733.0722335740571 58.35891487905398 L 733.1377264097831 58.46258198181127 L 733.2009227671449 58.566539959826216 L 733.2618163265597 58.67077841738765 L 733.3204009987221 58.77528693073668 L 733.3766709252137 58.88005504910905 L 733.4306204790889 58.985072295780256 L 733.4822442654372 59.09032816911312 L 733.5315371219228 59.19581214360803 L 733.5784941193015 59.301513670955444 L 733.6231105619123 59.4074221810907 L 733.6653819881484 59.513527083251056 L 733.7053041709022 59.619817767034704 L 733.7428731179889 59.72628360346185 L 733.7780850725449 59.832913946037564 L 733.8109365134042 59.939698131816456 L 733.8414241554501 60.046625482468926 L 733.8695449499438 60.153685305349015 L 733.8952960848292 60.26086689456366 L 733.9186749850144 60.36815953204325 L 733.9396793126286 60.47555248861345 L 733.9583069672569 60.5830350250681 L 733.9745560861492 60.69059639324311 L 733.9884250444071 60.79822583709131 L 733.9999124551464 60.905912593758 L 734.0090171696355 61.01364589465726 L 734.0157382774107 61.12141496654876 L 734.0200751063667 61.22920903261514 L 734.0220272228242 61.337017313539604 M 734.0221482128802 95.6752857281 L 734.0209557529765 95.78309627301661 L 734.0173784925105 95.89089603696858 L 734.0114167892052 95.99867424006935 L 734.0030712392258 96.1064201045884 L 733.9923426771206 96.21412285602908 L 733.9792321757368 96.321771724206 L 733.9637410461136 96.42935594432204 L 733.945870837351 96.53686475804484 L 733.9256233364549 96.64428741458265 L 733.9030005681587 96.75161317175929 L 733.8780047947204 96.85883129708851 L 733.8506385156963 96.96593106884711 L 733.8209044676918 97.07290177714718 L 733.7888056240866 97.17973272500701 L 733.7543451947386 97.28641322942086 L 733.7175266256618 97.39293262242717 L 733.6783535986824 97.49928025217542 L 733.6368300310706 97.60544548399125 L 733.5929600751487 97.71141770143996 L 733.5467481178753 97.8171863073881 L 733.498198780408 97.92274072506322 L 733.4473169176399 98.02807039911151 L 733.394107617715 98.13316479665336 L 733.3385762015188 98.23801340833658 L 733.2807282221468 98.34260574938737 L 733.2205694643486 98.4469313606588 L 733.15810594395 98.55097980967666 L 733.0933439072508 98.65474069168278 L 733.0262898304007 98.7582036306754 L 732.9569504187518 98.86135828044685 L 732.8853326061871 98.96419432561812 L 732.8114435544285 99.0667014826704 L 732.7352906523195 99.16886950097337 L 732.6568815150866 99.27068816381038 L 732.5762239835785 99.37214728939998 L 732.4933261234811 99.47323673191414 L 732.4081962245112 99.57394638249288 L 732.3208427995878 99.67426617025505 L 732.2312745839806 99.77418606330548 L 732.1395005344366 99.87369606973812 L 732.0455298282841 99.97278623863527 L 731.9493718625156 100.0714466610626 L 731.8510362528475 100.1696674710601 L 731.7505328327586 100.2674388466286 L 731.6478716525075 100.36475101071201 L 731.5430629781265 100.46159423217506 L 731.4361172903956 100.55795882677627 L 731.3270452837946 100.65383515813649 L 731.2158578654333 100.74921363870249 L 731.1025661539608 100.84408473070569 L 730.9871814784539 100.93843894711594 L 730.8697153772838 101.03226685259024 L 730.7501795969629 101.12555906441622 L 730.6285860909696 101.21830625345046 L 730.5049470185533 101.31049914505132 L 730.3792747435178 101.4021285200065 L 730.2515818329864 101.49318521545483 L 730.1218810561434 101.58366012580265 L 729.9901853829584 101.67354420363434 L 729.8565079828892 101.762828460617 L 729.7208622235643 101.85150396839936 L 729.5832616694464 101.93956185950451 L 729.4437200804765 102.02699332821673 L 729.3022514106972 102.11378963146201 L 729.1588698068574 102.19994208968237 L 729.0135896069983 102.28544208770374 L 728.8664253390184 102.37028107559762 L 728.7173917192223 102.45445056953588 L 728.5665036508474 102.53794215263929 L 728.413776222575 102.6207474758191 L 728.2592247070208 102.70285825861201 L 728.1028645592073 102.78426629000816 L 727.944711415019 102.86496342927225 L 727.7847810896387 102.9449416067576 L 727.6230895759655 103.02419282471311 L 727.4596530430163 103.10270915808303 L 727.2944878343077 103.18048275529944 L 727.1276104662234 103.25750583906745 L 726.9590376263609 103.33377070714286 L 726.7887861718638 103.4092697331024 L 726.6168731277356 103.48399536710642 L 726.4433156851376 103.55794013665377 L 726.2681311996693 103.63109664732913 L 726.0913371896332 103.70345758354237 L 725.9129513342832 103.7750157092602 L 725.7329914720559 103.84576386872968 L 725.5514755987879 103.91569498719377 L 725.3684218659149 103.98480207159896 L 725.183848578658 104.05307821129438 L 724.9977741941917 104.12051657872294 L 724.8102173197998 104.1871104301041 L 724.6211967110131 104.25285310610823 L 724.4307312697352 104.31773803252251 L 724.2388400423514 104.38175872090837 L 724.0455422178246 104.44490876925032 L 723.8508571257761 104.50718186259614 L 723.6548042345529 104.5685717736884 L 723.4574031492807 104.62907236358716 L 723.2586736099037 104.68867758228383 L 723.0586354892099 104.7473814693062 L 722.857308790845 104.80517815431453 L 722.6547136473109 104.86206185768845 L 722.4508703179531 104.91802689110501 L 722.2457991869348 104.97306765810755 L 722.0395207611981 105.02717865466522 L 721.8320556684138 105.08035446972343 L 721.623424654918 105.13258978574503 L 721.4136485836386 105.18387937924192 L 721.2027484320076 105.23421812129749 L 720.9907452898645 105.28360097807949 L 720.7776603573469 105.33202301134341 L 720.5635149427706 105.37947937892625 L 720.3483304604982 105.4259653352308 L 720.132128428799 105.4714762317002 L 719.9149304676959 105.51600751728267 L 719.6967582968039 105.55955473888682 L 719.4776337331583 105.60211354182675 L 719.2575786890329 105.64367967025764 L 719.0366151697489 105.68424896760128 L 718.8147652714739 105.72381737696173 L 718.5920511790129 105.76238094153106 L 718.3684951635894 105.79993580498493 L 718.144119580619 105.83647821186828 L 717.9189468674726 105.8720045079709 L 717.6929995412343 105.90651114069276 L 717.4663001964481 105.93999465939936 L 717.2388715028596 105.97245171576672 L 717.0107362031488 106.00387906411626 L 716.7819171106555 106.03427356173933 L 716.5524371070982 106.0636321692115 L 716.3223191402861 106.09195195069648 L 716.0915862218241 106.11923007423972 L 715.8602614248117 106.14546381205162 L 715.6283678815358 106.17065054078024 L 715.3959287811577 106.1947877417737 L 715.1629673673937 106.21787300133201 L 714.9295069361907 106.23990401094846 L 714.6955708333977 106.26087856754044 L 714.4611824524297 106.28079457366978 L 714.2263652319298 106.29965003775246 L 713.9911426534242 106.31744307425777 L 713.7555382389745 106.3341719038969 L 713.5195755488262 106.34983485380084 L 713.2832781790515 106.36443035768762 L 713.0466697591905 106.37795695601905 L 712.8097739498879 106.39041329614655 L 712.5726144405274 106.40179813244647 L 712.3352149468623 106.4121103264447 L 712.0975992086438 106.42134884693041 L 711.8597909872482 106.42951277005928 L 711.6218140632991 106.43660127944577 L 711.3836922342907 106.44261366624485 L 711.1454493122076 106.44754932922287 L 710.9071091211432 106.45140777481762 L 710.6686954949182 106.45418861718778 L 710.4302322746964 106.45589157825142 L 710.1917433066013 106.45651648771386 L 709.9532524393308 106.45606328308465 L 709.7147835217729 106.4545320096839 L 709.4763604006207 106.45192282063768 L 709.2380069179877 106.44823597686269 L 708.9997469090233 106.44347184704026 L 708.7616041995301 106.43763090757939 L 708.5236026035805 106.43071374256917 L 708.2857659211356 106.42272104372033 L 708.0481179356657 106.41365361029608 L 707.8106824117712 106.40351234903224 L 707.5734830928064 106.39229827404645 L 707.336543698506 106.38001250673689 L 707.0998879226117 106.36665627567004 L 706.8635394305039 106.35223091645787 L 706.6275218568348 106.33673787162431 L 706.3918588031653 106.32017869046089 L 706.1565738356041 106.30255502887195 L 705.9216904824522 106.28386864920897 L 705.6872322318488 106.26412142009434 L 705.453222529424 106.2433153162345 L 705.2196847759526 106.22145241822251 L 704.9866423250157 106.19853491232995 L 704.754118480664 106.17456509028831 L 704.5221364950881 106.14954534905984 L 704.2907195662935 106.12347819059778 L 704.05989083578 106.09636622159626 L 703.8296733862285 106.06821215322961 L 703.6000902391919 106.03901880088118 L 703.3711643527936 106.0087890838619 L 703.1429186194316 105.97752602511825 L 702.915375863489 105.94523275093007 L 702.6885588390517 105.91191249059789 L 702.4624902276332 105.87756857611994 L 702.2371926359062 105.84220444185907 L 702.0126885934421 105.8058236241992 L 701.7890005504582 105.76842976119184 L 701.5661508755724 105.73002659219209 L 701.3441618535662 105.69061795748485 L 701.1230556831572 105.65020779790075 L 700.9028544747778 105.60880015442207 L 700.6835802483656 105.56639916777867 L 700.4652549311604 105.52300907803387 L 700.247900355512 105.47863422416049 L 700.031538256697 105.43327904360692 L 699.8161902707446 105.38694807185344 L 699.6018779322744 105.33964594195861 L 699.3886226723413 105.291377384096 L 699.1764458162938 105.24214722508117 L 698.9653685816405 105.19196038788901 L 698.7554120759291 105.1408218911614 L 698.5465972946353 105.08873684870541 L 698.3389451190629 105.03571046898188 L 698.1324763142568 104.98174805458457 L 697.9272115269251 104.92685500170998 L 697.7231712833757 104.87103679961766 L 697.5203759874627 104.81429903008126 L 697.3188459185469 104.7566473668305 L 697.1186012294672 104.69808757498365 L 696.9196619445256 104.63862551047107 L 696.7220479574848 104.57826711944969 L 696.525779029579 104.51701843770829 L 696.3308747875371 104.45488559006402 L 696.1373547216213 104.39187478974986 L 695.9452381836765 104.32799233779335 L 695.7545443851967 104.26324462238642 L 695.5652923954027 104.19763811824667 L 695.3775011393358 104.13117938596986 L 695.1911893959651 104.0638750713738 L 695.0063757963097 103.99573190483389 L 694.8230788215757 103.92675670060999 L 694.6413168013075 103.85695635616503 L 694.4611079115559 103.7863378514753 L 694.2824701730597 103.71490824833242 L 694.1054214494437 103.64267468963719 L 693.9299794454329 103.56964439868527 L 693.7561617050815 103.4958246784449 L 693.5839856100185 103.4212229108266 L 693.4134683777102 103.34584655594495 L 693.2446270597376 103.26970315137261 L 693.0774785400916 103.19280031138662 L 692.9120395334853 103.11514572620688 L 692.7483265836811 103.03674716122718 L 692.5863560618378 102.9576124562387 L 692.4261441648725 102.87774952464599 L 692.2677069138414 102.79716635267567 L 692.1110601523376 102.71587099857777 L 691.9562195449067 102.63387159181995 L 691.8032005754803 102.55117633227457 L 691.6520185458281 102.46779348939864 L 691.5026885740268 102.383731401407 L 691.3552255929493 102.29899847443839 L 691.2096443487708 102.21360318171489 L 691.0659593994943 102.12755406269459 L 690.9241851134951 102.04085972221772 L 690.7843356680837 101.95352882964605 L 690.646425048088 101.86557011799609 L 690.5104670444549 101.77699238306568 L 690.3764752528718 101.68780448255453 L 690.2444630724061 101.59801533517833 L 690.1144437041658 101.50763391977702 L 689.9864301499792 101.41666927441683 L 689.8604352110954 101.32513049548646 L 689.736471486903 101.23302673678755 L 689.6145513736714 101.14036720861921 L 689.4946870633099 101.04716117685703 L 689.37689054215 100.95341796202653 L 689.2611735897456 100.85914693837105 L 689.1475477776953 100.76435753291443 L 689.036024468486 100.66905922451821 L 688.9266148143553 100.5732615429338 L 688.8193297561776 100.47697406784954 L 688.7141800223693 100.3802064279327 L 688.6111761278163 100.28296829986664 L 688.510328372822 100.18526940738312 L 688.4116468420779 100.08711952028997 L 688.3151414036549 99.98852845349413 L 688.2208217080165 99.8895060660201 L 688.1286971870535 99.79006226002413 L 688.0387770531413 99.69020697980392 L 687.9510702982184 99.5899502108043 L 687.8655856928871 99.48930197861863 L 687.7823317855368 99.38827234798623 L 687.7013169014888 99.28687142178599 L 687.622549142164 99.18510934002603 L 687.5460363842727 99.08299627882971 L 687.4717862790269 98.98054244941808 L 687.3998062513754 98.87775809708869 L 687.3301034992606 98.7746535001911 L 687.2626849929002 98.67123896909912 L 687.1975574740882 98.56752484517966 L 687.1347274555222 98.46352149975867 L 687.0742012201521 98.35923933308405 L 687.0159848205506 98.25468877328554 L 686.9600840783094 98.14988027533201 L 686.9065045834559 98.04482431998592 L 686.8552516938951 97.93953141275524 L 686.8063305348733 97.83401208284296 L 686.7597459984654 97.72827688209414 L 686.7155027430865 97.62233638394075 L 686.6736051930251 97.5162011823443 L 686.6340575380013 97.40988189073651 L 686.5968637327477 97.30338914095798 L 686.5620274966138 97.19673358219488 L 686.5295523131941 97.08992587991426 L 686.4994414299802 96.9829767147973 L 686.4716978580349 96.87589678167143 L 686.4463243716925 96.7686967884407 L 686.4233235082805 96.66138745501512 L 686.4026975678661 96.55397951223858 L 686.3844486130259 96.44648370081588 L 686.3685784686405 96.33891077023856 L 686.355088721711 96.23127147771005 L 686.3439807212008 96.1235765870699 L 686.3352555779007 96.01583686771744 L 686.3289141643178 95.90806309353479 L 686.3249571145882 95.80026604180959 L 686.3233848244134 95.69245649215716" stroke-miterlimit="10" stroke-width="2.7769845610000004" stroke-dasharray=""/></g><g><g/><text fill="black" stroke="none" font-family="sans-serif" font-size="11pt" font-style="normal" font-weight="normal" text-decoration="normal" x="659.6645497957592" y="123.98419304699999" text-anchor="start" dominant-baseline="alphabetic" xml:space="preserve">user-system-db</text></g></g><g><path fill="white" stroke="black" paint-order="fill stroke markers" d=" M 197.7203089120443 226.89597383699999 L 214.05551221204428 226.89597383699999 L 214.05551221204428 1164.5366432569995 L 197.7203089120443 1164.5366432569995 L 197.7203089120443 226.89597383699999" stroke-miterlimit="10" stroke-width="1.3612669416666667" stroke-dasharray=""/><path fill="white" stroke="black" paint-order="fill stroke markers" d=" M 598.7122115577396 272.634543077 L 615.0474148577397 272.634543077 L 615.0474148577397 318.373112317 L 598.7122115577396 318.373112317 L 598.7122115577396 272.634543077" stroke-miterlimit="10" stroke-width="1.3612669416666667" stroke-dasharray=""/><path fill="white" stroke="black" paint-order="fill stroke markers" d=" M 335.8772319863255 364.111681557 L 352.2124352863255 364.111681557 L 352.2124352863255 1164.5366432569995 L 335.8772319863255 1164.5366432569995 L 335.8772319863255 364.111681557" stroke-miterlimit="10" stroke-width="1.3612669416666667" stroke-dasharray=""/><path fill="white" stroke="black" paint-order="fill stroke markers" d=" M 477.6919919746693 409.850250797 L 494.0271952746693 409.850250797 L 494.0271952746693 547.065958517 L 477.6919919746693 547.065958517 L 477.6919919746693 409.850250797" stroke-miterlimit="10" stroke-width="1.3612669416666667" stroke-dasharray=""/><path fill="white" stroke="black" paint-order="fill stroke markers" d=" M 702.0051497448802 455.588820037 L 718.3403530448803 455.588820037 L 718.3403530448803 501.327389277 L 702.0051497448802 501.327389277 L 702.0051497448802 455.588820037" stroke-miterlimit="10" stroke-width="1.3612669416666667" stroke-dasharray=""/><path fill="white" stroke="black" paint-order="fill stroke markers" d=" M 477.6919919746693 592.804527757 L 494.0271952746693 592.804527757 L 494.0271952746693 730.0202354769998 L 477.6919919746693 730.0202354769998 L 477.6919919746693 592.804527757" stroke-miterlimit="10" stroke-width="1.3612669416666667" stroke-dasharray=""/><path fill="white" stroke="black" paint-order="fill stroke markers" d=" M 702.0051497448802 638.5430969969999 L 718.3403530448803 638.5430969969999 L 718.3403530448803 684.2816662369999 L 702.0051497448802 684.2816662369999 L 702.0051497448802 638.5430969969999" stroke-miterlimit="10" stroke-width="1.3612669416666667" stroke-dasharray=""/><path fill="white" stroke="black" paint-order="fill stroke markers" d=" M 598.7122115577396 775.7588047169997 L 615.0474148577397 775.7588047169997 L 615.0474148577397 821.4973739569997 L 598.7122115577396 821.4973739569997 L 598.7122115577396 775.7588047169997" stroke-miterlimit="10" stroke-width="1.3612669416666667" stroke-dasharray=""/><path fill="white" stroke="black" paint-order="fill stroke markers" d=" M 598.7122115577396 1048.5566998269994 L 615.0474148577397 1048.5566998269994 L 615.0474148577397 1094.2952690669995 L 598.7122115577396 1094.2952690669995 L 598.7122115577396 1048.5566998269994" stroke-miterlimit="10" stroke-width="1.3612669416666667" stroke-dasharray=""/><g><g><rect fill="white" stroke="none" x="115.6408269914909" y="205.660209547" width="39.9470697790625" height="21.23576429"/></g><text fill="black" stroke="none" font-family="sans-serif" font-size="11pt" font-style="normal" font-weight="normal" text-decoration="normal" x="118.0911074864909" y="220.36189251699997" text-anchor="start" dominant-baseline="alphabetic" xml:space="preserve">/login</text></g><g><path fill="none" stroke="black" paint-order="fill stroke markers" d=" M 73.50841485 226.89597383699999 L 184.27099152837764 226.89597383699999" stroke-miterlimit="10" stroke-width="1.3612669416666667" stroke-dasharray=""/><g transform="translate(197.7203089120443,226.89597383699999) translate(-197.7203089120443,-226.89597383699999)"><path fill="black" stroke="none" paint-order="stroke fill markers" d=" M 184.1076394953776 220.08963912866665 L 197.7203089120443 226.89597383699999 L 184.1076394953776 233.70230854533332 Z"/></g></g><g><g><rect fill="white" stroke="none" x="336.30654434155207" y="251.398778787" width="140.1546350866797" height="21.23576429"/></g><text fill="black" stroke="none" font-family="sans-serif" font-size="11pt" font-style="normal" font-weight="normal" text-decoration="normal" x="338.7568248365521" y="266.100461757" text-anchor="start" dominant-baseline="alphabetic" xml:space="preserve">parseJwtAndGetMail</text></g><g><path fill="none" stroke="black" paint-order="fill stroke markers" d=" M 214.05551221204428 272.634543077 L 585.2628941740729 272.634543077" stroke-miterlimit="10" stroke-width="1.3612669416666667" stroke-dasharray=""/><g transform="translate(598.7122115577396,272.634543077) translate(-598.7122115577396,-272.634543077)"><path fill="black" stroke="none" paint-order="stroke fill markers" d=" M 585.0995421410729 265.82820836866665 L 598.7122115577396 272.634543077 L 585.0995421410729 279.4408777853333 Z"/></g></g><g><g><rect fill="white" stroke="none" x="361.5678129572747" y="297.137348027" width="89.63209785523438" height="21.23576429"/></g><text fill="black" stroke="none" font-family="sans-serif" font-size="11pt" font-style="normal" font-weight="normal" text-decoration="normal" x="364.01809345227474" y="311.83903099699995" text-anchor="start" dominant-baseline="alphabetic" xml:space="preserve">Result: email</text></g><g><path fill="none" stroke="black" paint-order="fill stroke markers" d=" M 598.7122115577396 318.373112317 L 216.0974126245443 318.373112317" stroke-miterlimit="10" stroke-width="1.3612669416666667" stroke-dasharray="6.53408132"/><g transform="translate(214.05551221204428,318.373112317) translate(-214.05551221204428,-318.373112317)"><path fill="none" stroke="black" paint-order="fill stroke markers" d=" M 228.05075659509833 312.12971483137653 L 215.58581207759374 318.373112317 L 228.05075659509833 324.61650980262345" stroke-miterlimit="10" stroke-width="1.3612669416666667"/></g></g><g><g><rect fill="white" stroke="none" x="241.55333067889197" y="342.875917267" width="66.82608284058594" height="21.23576429"/></g><text fill="black" stroke="none" font-family="sans-serif" font-size="11pt" font-style="normal" font-weight="normal" text-decoration="normal" x="244.00361117389195" y="357.57760023699996" text-anchor="start" dominant-baseline="alphabetic" xml:space="preserve">loginUser</text></g><g><path fill="none" stroke="black" paint-order="fill stroke markers" d=" M 214.05551221204428 364.111681557 L 322.42791460265886 364.111681557" stroke-miterlimit="10" stroke-width="1.3612669416666667" stroke-dasharray=""/><g transform="translate(335.8772319863255,364.111681557) translate(-335.8772319863255,-364.111681557)"><path fill="black" stroke="none" paint-order="stroke fill markers" d=" M 322.26456256965884 357.30534684866666 L 335.8772319863255 364.111681557 L 322.26456256965884 370.91801626533334 Z"/></g></g><g><g><rect fill="white" stroke="none" x="373.80116561840754" y="388.614486507" width="82.30209602417969" height="21.23576429"/></g><text fill="black" stroke="none" font-family="sans-serif" font-size="11pt" font-style="normal" font-weight="normal" text-decoration="normal" x="376.25144611340755" y="403.31616947699996" text-anchor="start" dominant-baseline="alphabetic" xml:space="preserve">findByEmail</text></g><g><path fill="none" stroke="black" paint-order="fill stroke markers" d=" M 352.2124352863255 409.850250797 L 464.24267459100264 409.850250797" stroke-miterlimit="10" stroke-width="1.3612669416666667" stroke-dasharray=""/><g transform="translate(477.6919919746693,409.850250797) translate(-477.6919919746693,-409.850250797)"><path fill="black" stroke="none" paint-order="stroke fill markers" d=" M 464.0793225580026 403.04391608866666 L 477.6919919746693 409.850250797 L 464.0793225580026 416.65658550533334 Z"/></g></g><g><g><rect fill="white" stroke="none" x="538.5329864361614" y="434.353055747" width="118.96637214722656" height="21.23576429"/></g><text fill="black" stroke="none" font-family="sans-serif" font-size="11pt" font-style="normal" font-weight="normal" text-decoration="normal" x="540.9832669311614" y="449.05473871699996" text-anchor="start" dominant-baseline="alphabetic" xml:space="preserve">get User by email</text></g><g><path fill="none" stroke="black" paint-order="fill stroke markers" d=" M 494.0271952746693 455.588820037 L 688.5558323612136 455.588820037" stroke-miterlimit="10" stroke-width="1.3612669416666667" stroke-dasharray=""/><g transform="translate(702.0051497448802,455.588820037) translate(-702.0051497448802,-455.588820037)"><path fill="black" stroke="none" paint-order="stroke fill markers" d=" M 688.3924803282135 448.78248532866667 L 702.0051497448802 455.588820037 L 688.3924803282135 462.39515474533334 Z"/></g></g><g><g><rect fill="white" stroke="none" x="558.0927551129192" y="480.091624987" width="79.84683479371094" height="21.23576429"/></g><text fill="black" stroke="none" font-family="sans-serif" font-size="11pt" font-style="normal" font-weight="normal" text-decoration="normal" x="560.5430356079193" y="494.79330795699997" text-anchor="start" dominant-baseline="alphabetic" xml:space="preserve">result: User</text></g><g><path fill="none" stroke="black" paint-order="fill stroke markers" d=" M 702.0051497448802 501.327389277 L 496.0690956871693 501.327389277" stroke-miterlimit="10" stroke-width="1.3612669416666667" stroke-dasharray="6.53408132"/><g transform="translate(494.0271952746693,501.327389277) translate(-494.0271952746693,-501.327389277)"><path fill="none" stroke="black" paint-order="fill stroke markers" d=" M 508.02243965772334 495.08399179137655 L 495.55749514021875 501.327389277 L 508.02243965772334 507.57078676262347" stroke-miterlimit="10" stroke-width="1.3612669416666667"/></g></g><g><g><rect fill="white" stroke="none" x="375.0287962336419" y="525.830194227" width="79.84683479371094" height="21.23576429"/></g><text fill="black" stroke="none" font-family="sans-serif" font-size="11pt" font-style="normal" font-weight="normal" text-decoration="normal" x="377.4790767286419" y="540.531877197" text-anchor="start" dominant-baseline="alphabetic" xml:space="preserve">result: User</text></g><g><path fill="none" stroke="black" paint-order="fill stroke markers" d=" M 477.6919919746693 547.065958517 L 354.2543356988255 547.065958517" stroke-miterlimit="10" stroke-width="1.3612669416666667" stroke-dasharray="6.53408132"/><g transform="translate(352.2124352863255,547.065958517) translate(-352.2124352863255,-547.065958517)"><path fill="none" stroke="black" paint-order="fill stroke markers" d=" M 366.20767966937956 540.8225610313766 L 353.74273515187497 547.065958517 L 366.20767966937956 553.3093560026234" stroke-miterlimit="10" stroke-width="1.3612669416666667"/></g></g><g><g><rect fill="white" stroke="none" x="390.08246902416926" y="571.5687634669999" width="49.73948921265625" height="21.23576429"/></g><text fill="black" stroke="none" font-family="sans-serif" font-size="11pt" font-style="normal" font-weight="normal" text-decoration="normal" x="392.5327495191693" y="586.2704464369999" text-anchor="start" dominant-baseline="alphabetic" xml:space="preserve">update</text></g><g><path fill="none" stroke="black" paint-order="fill stroke markers" d=" M 352.2124352863255 592.804527757 L 464.24267459100264 592.804527757" stroke-miterlimit="10" stroke-width="1.3612669416666667" stroke-dasharray=""/><g transform="translate(477.6919919746693,592.804527757) translate(-477.6919919746693,-592.804527757)"><path fill="black" stroke="none" paint-order="stroke fill markers" d=" M 464.0793225580026 585.9981930486666 L 477.6919919746693 592.804527757 L 464.0793225580026 599.6108624653333 Z"/></g></g><g><g><rect fill="white" stroke="none" x="539.7391403057903" y="617.3073327069999" width="116.55406440796875" height="21.23576429"/></g><text fill="black" stroke="none" font-family="sans-serif" font-size="11pt" font-style="normal" font-weight="normal" text-decoration="normal" x="542.1894208007903" y="632.0090156769999" text-anchor="start" dominant-baseline="alphabetic" xml:space="preserve">update login time</text></g><g><path fill="none" stroke="black" paint-order="fill stroke markers" d=" M 494.0271952746693 638.5430969969999 L 688.5558323612136 638.5430969969999" stroke-miterlimit="10" stroke-width="1.3612669416666667" stroke-dasharray=""/><g transform="translate(702.0051497448802,638.5430969969999) translate(-702.0051497448802,-638.5430969969999)"><path fill="black" stroke="none" paint-order="stroke fill markers" d=" M 688.3924803282135 631.7367622886666 L 702.0051497448802 638.5430969969999 L 688.3924803282135 645.3494317053332 Z"/></g></g><g><g><rect fill="white" stroke="none" x="558.0927551129192" y="663.0459019469998" width="79.84683479371094" height="21.23576429"/></g><text fill="black" stroke="none" font-family="sans-serif" font-size="11pt" font-style="normal" font-weight="normal" text-decoration="normal" x="560.5430356079193" y="677.7475849169998" text-anchor="start" dominant-baseline="alphabetic" xml:space="preserve">result: User</text></g><g><path fill="none" stroke="black" paint-order="fill stroke markers" d=" M 702.0051497448802 684.2816662369999 L 496.0690956871693 684.2816662369999" stroke-miterlimit="10" stroke-width="1.3612669416666667" stroke-dasharray="6.53408132"/><g transform="translate(494.0271952746693,684.2816662369999) translate(-494.0271952746693,-684.2816662369999)"><path fill="none" stroke="black" paint-order="fill stroke markers" d=" M 508.02243965772334 678.0382687513764 L 495.55749514021875 684.2816662369999 L 508.02243965772334 690.5250637226233" stroke-miterlimit="10" stroke-width="1.3612669416666667"/></g></g><g><g><rect fill="white" stroke="none" x="375.0287962336419" y="708.7844711869998" width="79.84683479371094" height="21.23576429"/></g><text fill="black" stroke="none" font-family="sans-serif" font-size="11pt" font-style="normal" font-weight="normal" text-decoration="normal" x="377.4790767286419" y="723.4861541569998" text-anchor="start" dominant-baseline="alphabetic" xml:space="preserve">result: User</text></g><g><path fill="none" stroke="black" paint-order="fill stroke markers" d=" M 477.6919919746693 730.0202354769998 L 354.2543356988255 730.0202354769998" stroke-miterlimit="10" stroke-width="1.3612669416666667" stroke-dasharray="6.53408132"/><g transform="translate(352.2124352863255,730.0202354769998) translate(-352.2124352863255,-730.0202354769998)"><path fill="none" stroke="black" paint-order="fill stroke markers" d=" M 366.20767966937956 723.7768379913764 L 353.74273515187497 730.0202354769998 L 366.20767966937956 736.2636329626232" stroke-miterlimit="10" stroke-width="1.3612669416666667"/></g></g><g><g><rect fill="white" stroke="none" x="424.5152777903138" y="754.5230404269997" width="101.8940912634375" height="21.23576429"/></g><text fill="black" stroke="none" font-family="sans-serif" font-size="11pt" font-style="normal" font-weight="normal" text-decoration="normal" x="426.9655582853138" y="769.2247233969997" text-anchor="start" dominant-baseline="alphabetic" xml:space="preserve">generateToken</text></g><g><path fill="none" stroke="black" paint-order="fill stroke markers" d=" M 352.2124352863255 775.7588047169997 L 585.2628941740729 775.7588047169997" stroke-miterlimit="10" stroke-width="1.3612669416666667" stroke-dasharray=""/><g transform="translate(598.7122115577396,775.7588047169997) translate(-598.7122115577396,-775.7588047169997)"><path fill="black" stroke="none" paint-order="stroke fill markers" d=" M 585.0995421410729 768.9524700086664 L 598.7122115577396 775.7588047169997 L 585.0995421410729 782.5651394253331 Z"/></g></g><g><g><rect fill="white" stroke="none" x="426.5732611887513" y="800.2616096669997" width="97.7781244665625" height="21.23576429"/></g><text fill="black" stroke="none" font-family="sans-serif" font-size="11pt" font-style="normal" font-weight="normal" text-decoration="normal" x="429.0235416837513" y="814.9632926369997" text-anchor="start" dominant-baseline="alphabetic" xml:space="preserve">result: new jwt</text></g><g><path fill="none" stroke="black" paint-order="fill stroke markers" d=" M 598.7122115577396 821.4973739569997 L 354.2543356988255 821.4973739569997" stroke-miterlimit="10" stroke-width="1.3612669416666667" stroke-dasharray="6.53408132"/><g transform="translate(352.2124352863255,821.4973739569997) translate(-352.2124352863255,-821.4973739569997)"><path fill="none" stroke="black" paint-order="fill stroke markers" d=" M 366.20767966937956 815.2539764713763 L 353.74273515187497 821.4973739569997 L 366.20767966937956 827.7407714426231" stroke-miterlimit="10" stroke-width="1.3612669416666667"/></g></g><g><g><rect fill="white" stroke="none" x="235.04295470232947" y="846.0001789069996" width="79.84683479371094" height="21.23576429"/></g><text fill="black" stroke="none" font-family="sans-serif" font-size="11pt" font-style="normal" font-weight="normal" text-decoration="normal" x="237.49323519732945" y="860.7018618769996" text-anchor="start" dominant-baseline="alphabetic" xml:space="preserve">result: User</text></g><g><path fill="none" stroke="black" paint-order="fill stroke markers" d=" M 335.8772319863255 867.2359431969996 L 216.0974126245443 867.2359431969996" stroke-miterlimit="10" stroke-width="1.3612669416666667" stroke-dasharray="6.53408132"/><g transform="translate(214.05551221204428,867.2359431969996) translate(-214.05551221204428,-867.2359431969996)"><path fill="none" stroke="black" paint-order="fill stroke markers" d=" M 228.05075659509833 860.9925457113762 L 215.58581207759374 867.2359431969996 L 228.05075659509833 873.479340682623" stroke-miterlimit="10" stroke-width="1.3612669416666667"/></g></g><g><g><rect fill="white" stroke="none" x="95.69094448416668" y="891.7387481469996" width="79.84683479371094" height="21.23576429"/></g><text fill="black" stroke="none" font-family="sans-serif" font-size="11pt" font-style="normal" font-weight="normal" text-decoration="normal" x="98.14122497916668" y="906.4404311169995" text-anchor="start" dominant-baseline="alphabetic" xml:space="preserve">result: User</text></g><g><path fill="none" stroke="black" paint-order="fill stroke markers" d=" M 197.7203089120443 912.9745124369996 L 75.55031526249999 912.9745124369996" stroke-miterlimit="10" stroke-width="1.3612669416666667" stroke-dasharray="6.53408132"/><g transform="translate(73.50841485,912.9745124369996) translate(-73.50841485,-912.9745124369996)"><path fill="none" stroke="black" paint-order="fill stroke markers" d=" M 87.50365923305402 906.7311149513762 L 75.03871471554947 912.9745124369996 L 87.50365923305402 919.217909922623" stroke-miterlimit="10" stroke-width="1.3612669416666667"/></g></g><g><g><rect fill="white" stroke="none" x="115.6408269914909" y="981.5823662969995" width="39.9470697790625" height="21.23576429"/></g><text fill="black" stroke="none" font-family="sans-serif" font-size="11pt" font-style="normal" font-weight="normal" text-decoration="normal" x="118.0911074864909" y="996.2840492669994" text-anchor="start" dominant-baseline="alphabetic" xml:space="preserve">/login</text></g><g><path fill="none" stroke="black" paint-order="fill stroke markers" d=" M 73.50841485 1002.8181305869995 L 184.27099152837764 1002.8181305869995" stroke-miterlimit="10" stroke-width="1.3612669416666667" stroke-dasharray=""/><g transform="translate(197.7203089120443,1002.8181305869995) translate(-197.7203089120443,-1002.8181305869995)"><path fill="black" stroke="none" paint-order="stroke fill markers" d=" M 184.1076394953776 996.0117958786661 L 197.7203089120443 1002.8181305869995 L 184.1076394953776 1009.6244652953328 Z"/></g></g><g><g><rect fill="white" stroke="none" x="336.30654434155207" y="1027.3209355369995" width="140.1546350866797" height="21.23576429"/></g><text fill="black" stroke="none" font-family="sans-serif" font-size="11pt" font-style="normal" font-weight="normal" text-decoration="normal" x="338.7568248365521" y="1042.0226185069996" text-anchor="start" dominant-baseline="alphabetic" xml:space="preserve">parseJwtAndGetMail</text></g><g><path fill="none" stroke="black" paint-order="fill stroke markers" d=" M 214.05551221204428 1048.5566998269994 L 585.2628941740729 1048.5566998269994" stroke-miterlimit="10" stroke-width="1.3612669416666667" stroke-dasharray=""/><g transform="translate(598.7122115577396,1048.5566998269994) translate(-598.7122115577396,-1048.5566998269994)"><path fill="black" stroke="none" paint-order="stroke fill markers" d=" M 585.0995421410729 1041.7503651186662 L 598.7122115577396 1048.5566998269994 L 585.0995421410729 1055.3630345353326 Z"/></g></g><g><g><rect fill="white" stroke="none" x="363.60790542553644" y="1073.0595047769996" width="85.55191291871094" height="21.23576429"/></g><text fill="black" stroke="none" font-family="sans-serif" font-size="11pt" font-style="normal" font-weight="normal" text-decoration="normal" x="366.05818592053646" y="1087.7611877469997" text-anchor="start" dominant-baseline="alphabetic" xml:space="preserve">Result: error</text></g><g><path fill="none" stroke="black" paint-order="fill stroke markers" d=" M 598.7122115577396 1094.2952690669995 L 216.0974126245443 1094.2952690669995" stroke-miterlimit="10" stroke-width="1.3612669416666667" stroke-dasharray="6.53408132"/><g transform="translate(214.05551221204428,1094.2952690669995) translate(-214.05551221204428,-1094.2952690669995)"><path fill="none" stroke="black" paint-order="fill stroke markers" d=" M 228.05075659509833 1088.0518715813762 L 215.58581207759374 1094.2952690669995 L 228.05075659509833 1100.5386665526228" stroke-miterlimit="10" stroke-width="1.3612669416666667"/></g></g><g><g><rect fill="white" stroke="none" x="92.83840542166668" y="1118.7980740169996" width="85.55191291871094" height="21.23576429"/></g><text fill="black" stroke="none" font-family="sans-serif" font-size="11pt" font-style="normal" font-weight="normal" text-decoration="normal" x="95.28868591666668" y="1133.4997569869997" text-anchor="start" dominant-baseline="alphabetic" xml:space="preserve">Result: error</text></g><g><path fill="none" stroke="black" paint-order="fill stroke markers" d=" M 197.7203089120443 1140.0338383069995 L 75.55031526249999 1140.0338383069995" stroke-miterlimit="10" stroke-width="1.3612669416666667" stroke-dasharray="6.53408132"/><g transform="translate(73.50841485,1140.0338383069995) translate(-73.50841485,-1140.0338383069995)"><path fill="none" stroke="black" paint-order="fill stroke markers" d=" M 87.50365923305402 1133.7904408213763 L 75.03871471554947 1140.0338383069995 L 87.50365923305402 1146.2772357926228" stroke-miterlimit="10" stroke-width="1.3612669416666667"/></g></g><g><g/><path fill="none" stroke="black" paint-order="fill stroke markers" d=" M 16.335203299999996 161.55516063699997 L 767.3459629448803 161.55516063699997 L 767.3459629448803 1164.5366432569995 L 16.335203299999996 1164.5366432569995 L 16.335203299999996 161.55516063699997 Z" stroke-miterlimit="10" stroke-width="2.3336004714285714" stroke-dasharray=""/><path fill="white" stroke="black" paint-order="fill stroke markers" d=" M 16.335203299999996 161.55516063699997 L 16.335203299999996 181.15740459699998 L 62.69440689707031 181.15740459699998 L 72.49552887707031 171.35628261699998 L 72.49552887707031 161.55516063699997 L 16.335203299999996 161.55516063699997" stroke-miterlimit="10" stroke-width="2.3336004714285714" stroke-dasharray=""/><text fill="black" stroke="none" font-family="sans-serif" font-size="8.8pt" font-style="normal" font-weight="bold" text-decoration="normal" x="32.67040659999999" y="174.62332327699997" text-anchor="start" dominant-baseline="alphabetic" xml:space="preserve">alt</text><g><rect fill="white" stroke="none" x="86.38045168207032" y="162.86197690099996" width="60.302981033945315" height="16.988611432000003"/></g><text fill="black" stroke="none" font-family="sans-serif" font-size="8.8pt" font-style="normal" font-weight="bold" text-decoration="normal" x="88.83073217707032" y="174.62332327699997" text-anchor="start" dominant-baseline="alphabetic" xml:space="preserve">[OK - 200]</text><g><path fill="none" stroke="black" paint-order="fill stroke markers" d=" M 16.335203299999996 937.4773173869995 L 767.3459629448803 937.4773173869995" stroke-miterlimit="10" stroke-width="2.3336004714285714" stroke-dasharray="4.083800825"/></g><g/><g><rect fill="white" stroke="none" x="86.38045168207032" y="938.7841336509995" width="117.64703620972656" height="16.988611432000003"/></g><text fill="black" stroke="none" font-family="sans-serif" font-size="8.8pt" font-style="normal" font-weight="bold" text-decoration="normal" x="88.83073217707032" y="950.5454800269995" text-anchor="start" dominant-baseline="alphabetic" xml:space="preserve">[Unauthorized - 401]</text></g><g/></g><g/><g/><g/><g/><g/><g/></g></svg>